<?xml version="1.0" standalone="no"?><!DOCTYPE svg PUBLIC "-//W3C//DTD SVG 1.1//EN" "http://www.w3.org/Graphics/SVG/1.1/DTD/svg11.dtd"><svg t="1555749288401" class="icon" style="" viewBox="0 0 1024 1024" version="1.1" xmlns="http://www.w3.org/2000/svg" p-id="4959" xmlns:xlink="http://www.w3.org/1999/xlink" width="200" height="200"><defs><style type="text/css"></style></defs><path d="M532.918857 0C405.845333 0 296.569905 85.23581 296.569905 248.832c0 106.886095 50.322286 215.430095 116.297143 282.477714 10.630095 27.794286 8.777143 48.664381 2.486857 63.390476 9.557333 12.970667 49.737143 53.540571 117.51619 53.540572 65.194667 0 104.740571-37.497905 116.297143-52.272762-4.388571-14.433524-4.973714-34.523429 5.022476-64.658286 65.487238-67.193905 115.029333-176.079238 115.029334-282.477714C769.219048 85.382095 659.992381 0 532.918857 0zM372.882286 630.832762C242.054095 679.350857 94.061714 764.586667 94.061714 848.554667v32.377904C94.061714 998.15619 322.511238 1024 534.137905 1024c211.919238 0 437.638095-25.84381 437.638095-143.067429v-32.377904c0-85.23581-145.066667-169.350095-280.088381-216.502857 0 0-39.984762 185.880381-92.501333 291.157333-18.627048-80.408381-52.516571-154.282667-52.516572-154.282667s43.739429-18.529524 43.739429-48.518095c0-37.059048-57.539048-54.759619-57.539048-54.759619s-57.490286 12.434286-57.490285 54.759619c0 28.769524 43.78819 48.518095 43.78819 48.518095s-33.938286 73.581714-52.516571 153.063619c-52.857905-105.813333-93.769143-291.157333-93.769143-291.157333z" p-id="4960"></path></svg>