<?xml version="1.0" standalone="no"?><!DOCTYPE svg PUBLIC "-//W3C//DTD SVG 1.1//EN" "http://www.w3.org/Graphics/SVG/1.1/DTD/svg11.dtd"><svg t="1567559292174" class="icon" viewBox="0 0 1024 1024" version="1.1" xmlns="http://www.w3.org/2000/svg" p-id="2517" xmlns:xlink="http://www.w3.org/1999/xlink" width="200" height="200"><defs><style type="text/css"></style></defs><path d="M487.936 57.2416a29.3888 29.3888 0 0 0-21.9136-7.168c-6.656 0.4096-16.1792 3.6864-27.0336 16.4864l-231.424 270.336L58.6752 207.6672c-22.2208-19.2512-42.5984-7.5776-50.176 1.2288-9.9328 11.3664-14.1312 31.0272 6.5536 48.9472L181.248 402.0224a42.496 42.496 0 0 0 9.8304 6.3488c11.4688 9.728 31.0272 13.6192 48.7424-7.0656L490.496 108.7488a35.84 35.84 0 0 0-2.4576-51.5072z m-77.7216 489.2672H58.5728a57.856 57.856 0 0 0-57.856 57.7536v351.6416c0 31.9488 25.9072 57.856 57.856 57.856h351.6416a57.856 57.856 0 0 0 57.856-57.856V604.2624a57.7536 57.7536 0 0 0-57.856-57.7536z m5.9392 370.3808a45.056 45.056 0 0 1-45.056 44.9536H97.6896a44.9536 44.9536 0 0 1-45.056-45.056v-273.408a45.056 45.056 0 0 1 45.056-45.056h273.408a45.056 45.056 0 0 1 45.056 45.056v273.408zM964.608 0.9216H613.0688a57.856 57.856 0 0 0-57.856 57.7536v351.6416c0 31.9488 25.9072 57.856 57.856 57.856H964.608a57.856 57.856 0 0 0 57.7536-57.856V58.6752A57.856 57.856 0 0 0 964.7104 1.024z m5.8368 370.3808c0 24.7808-20.0704 44.9536-44.9536 44.9536H652.288a45.056 45.056 0 0 1-45.056-45.056V97.8944a45.056 45.056 0 0 1 45.056-45.056h273.408a45.056 45.056 0 0 1 45.056 45.056v273.408z m-5.8368 177.9712H613.0688a57.856 57.856 0 0 0-57.856 57.856v351.6416c0 31.9488 25.9072 57.7536 57.856 57.7536H964.608a57.856 57.856 0 0 0 57.7536-57.7536V607.1296a57.856 57.856 0 0 0-57.7536-57.856z m5.8368 370.3808c0 24.8832-20.0704 45.056-44.9536 45.056H652.288a45.056 45.056 0 0 1-45.056-45.056v-273.408a45.056 45.056 0 0 1 45.056-45.056h273.408a45.056 45.056 0 0 1 45.056 45.056v273.408z" p-id="2518"></path></svg>