<?xml version="1.0" standalone="no"?><!DOCTYPE svg PUBLIC "-//W3C//DTD SVG 1.1//EN" "http://www.w3.org/Graphics/SVG/1.1/DTD/svg11.dtd"><svg t="1563523521133" class="icon" viewBox="0 0 1024 1024" version="1.1" xmlns="http://www.w3.org/2000/svg" p-id="18201" xmlns:xlink="http://www.w3.org/1999/xlink" width="200" height="200"><defs><style type="text/css"></style></defs><path d="M512 1024C229.23264 1024 0 794.76736 0 512S229.23264 0 512 0s512 229.23264 512 512-229.23264 512-512 512z m17.57184-489.32864v-230.4a17.6128 17.6128 0 0 0-35.28704 0V534.7328a70.2464 70.2464 0 0 0 0.16384 136.00768 17.7152 17.7152 0 0 0-0.16384 2.19136v87.77728a17.6128 17.6128 0 0 0 35.28704 0v-87.77728a17.7152 17.7152 0 0 0-0.18432-2.1504 70.26688 70.26688 0 0 0 0.18432-136.0896z m7.24992 92.85632a35.10272 35.10272 0 1 1-49.664-49.664 35.10272 35.10272 0 0 1 49.664 49.664z m-183.00928-268.3904a17.7152 17.7152 0 0 0 0.16384-2.19136v-52.67456a17.53088 17.53088 0 0 0-35.08224 0v52.67456c0 0.73728 0.02048 1.47456 0.1024 2.21184A70.2464 70.2464 0 0 0 266.24 427.2128c0 32.74752 22.44608 60.23168 52.75648 68.01408a17.75616 17.75616 0 0 0-0.1024 2.17088v263.31136a17.53088 17.53088 0 0 0 35.08224 0V497.37728a17.7152 17.7152 0 0 0-0.14336-2.12992 70.2464 70.2464 0 0 0 0-136.11008z m7.45472 92.8768a35.10272 35.10272 0 1 1-49.664-49.664 35.10272 35.10272 0 0 1 49.664 49.664zM757.76 427.19232c0-32.78848-22.528-60.33408-52.92032-68.05504a17.75616 17.75616 0 0 0 0.1024-2.19136v-52.67456a17.53088 17.53088 0 0 0-35.08224 0v52.67456c0 0.73728 0.06144 1.47456 0.16384 2.21184a70.2464 70.2464 0 0 0 0 136.04864 17.7152 17.7152 0 0 0-0.16384 2.19136v263.29088a17.53088 17.53088 0 0 0 35.08224 0V497.39776c0-0.7168-0.02048-1.4336-0.1024-2.1504A70.28736 70.28736 0 0 0 757.76 427.19232z m-45.40416 24.82176a35.10272 35.10272 0 1 1-49.64352-49.664 35.10272 35.10272 0 0 1 49.64352 49.664z" p-id="18202"></path></svg>