<?xml version="1.0" standalone="no"?><!DOCTYPE svg PUBLIC "-//W3C//DTD SVG 1.1//EN" "http://www.w3.org/Graphics/SVG/1.1/DTD/svg11.dtd"><svg t="1551057460143" class="icon" style="" viewBox="0 0 1126 1024" version="1.1" xmlns="http://www.w3.org/2000/svg" p-id="6837" xmlns:xlink="http://www.w3.org/1999/xlink" width="219.921875" height="200"><defs><style type="text/css"></style></defs><path d="M563.5072 449.2288V214.3232c-10.9568 0-24.576-2.6624-32.768-2.6624h-2.7648c-13.6192 2.6624-27.2384 2.6624-46.3872 5.4272v232.1408H1.024V263.4752c0-30.0032 24.576-51.8144 51.8144-51.8144H271.36c-57.344-13.7216-101.0688-38.2976-103.8336-84.6848C164.864 72.3968 227.6352-17.7152 317.7472 4.096 410.624 25.9072 476.16 96.9728 525.312 159.744 574.464 96.9728 648.192 15.0528 743.7312 1.3312 828.416-9.5232 893.952 72.3968 885.76 126.976c-8.192 46.3872-51.9168 73.728-109.2608 84.6848H992.256c30.0032 0 51.8144 24.576 51.8144 51.8144v185.7536H563.5072zM328.704 53.248c-43.7248-16.384-71.0656 2.7648-90.112 32.768-10.9568 16.384-21.9136 40.96-5.5296 57.344 43.7248 43.7248 161.1776 40.96 243.0976 32.768-38.2976-46.3872-84.6848-98.304-147.456-122.88z m491.52 90.112C850.2272 102.4 790.1184 20.48 724.5824 50.4832c-62.7712 30.1056-106.496 76.4928-147.456 125.6448 32.768 2.7648 68.3008 2.7648 101.0688 2.7648 43.7248-2.7648 120.1152-5.5296 142.0288-35.5328zM484.352 1008.9472H93.7984a48.9472 48.9472 0 0 1-49.152-49.152V487.424H484.352v521.5232z m516.096-49.152c0 27.3408-21.9136 49.152-49.152 49.152H560.7424V490.1888H1000.448v469.6064z" p-id="6838"></path></svg>