<?xml version="1.0" standalone="no"?><!DOCTYPE svg PUBLIC "-//W3C//DTD SVG 1.1//EN" "http://www.w3.org/Graphics/SVG/1.1/DTD/svg11.dtd"><svg t="1560758038542" class="icon" style="" viewBox="0 0 1024 1024" version="1.1" xmlns="http://www.w3.org/2000/svg" p-id="6872" xmlns:xlink="http://www.w3.org/1999/xlink" width="200" height="200"><defs><style type="text/css"></style></defs><path d="M512 0a512 512 0 1 0 0 1024A512 512 0 0 0 512 0z m138.5472 799.3344c-30.1056 10.4448-53.76 18.432-71.7824 24.1664a205.2096 205.2096 0 0 1-62.2592 8.4992c-36.2496 0-64.6144-8.0896-84.6848-23.6544a73.728 73.728 0 0 1-30.3104-60.6208c0-9.4208 0.7168-18.944 2.2528-28.8768 1.536-9.9328 4.096-21.2992 7.168-33.5872l37.5808-118.784c3.3792-11.3664 1.4336-21.8112 3.7888-32.256a122.88 122.88 0 0 0 3.3792-27.4432c0-15.5648 1.4336-26.0096-5.5296-31.744-7.168-6.144-20.3776-4.3008-40.1408-4.3008-9.8304 0-19.8656 1.3312-29.9008 3.7888-10.24 2.7648-19.0464 0.512-26.2144 3.3792l10.0352-36.864a876.544 876.544 0 0 1 70.5536-22.7328c22.3232-6.656 43.7248-9.5232 63.488-9.5232 36.2496 0 64.1024 7.68 83.6608 23.2448 19.456 15.6672 41.1648 35.9424 41.1648 60.6208 0 5.12-0.8192 14.1312-2.048 27.4432-1.3312 12.8-3.8912 24.576-7.4752 35.4304l-49.4592 118.3744a318.7712 318.7712 0 0 0-7.9872 32.6656 141.312 141.312 0 0 0-3.7888 27.4432c0 15.6672 4.096 26.5216 11.776 32.1536 7.9872 5.7344 21.6064 8.4992 40.96 8.4992 9.0112 0 19.2512-1.3312 30.8224-4.096a154.624 154.624 0 0 0 24.9856-7.68l-10.0352 36.4544zM643.8912 319.488a93.5936 93.5936 0 0 1-62.7712 21.7088 96.0512 96.0512 0 0 1-63.2832-21.7088 65.2288 65.2288 0 0 1-26.3168-52.5312 66.56 66.56 0 0 1 26.3168-52.6336 96.5632 96.5632 0 0 1 63.2832-22.2208c24.3712 0 45.4656 7.5776 62.7712 22.2208a66.56 66.56 0 0 1 26.2144 52.6336 65.2288 65.2288 0 0 1-26.2144 52.5312z" p-id="6873"></path></svg>