<?xml version="1.0" standalone="no"?><!DOCTYPE svg PUBLIC "-//W3C//DTD SVG 1.1//EN" "http://www.w3.org/Graphics/SVG/1.1/DTD/svg11.dtd"><svg t="1562915501667" class="icon" viewBox="0 0 1194 1024" version="1.1" xmlns="http://www.w3.org/2000/svg" p-id="10445" xmlns:xlink="http://www.w3.org/1999/xlink" width="233.203125" height="200"><defs><style type="text/css"></style></defs><path d="M448.512 512.426667a150.698667 150.698667 0 0 1-105.984-42.24 151.210667 151.210667 0 0 1-31.914667-45.397334 129.877333 129.877333 0 0 1-11.946666-54.954666c0-19.456 4.010667-37.717333 11.946666-55.04 7.936-17.237333 18.602667-32.256 31.914667-44.970667a153.514667 153.514667 0 0 1 210.944 0c13.312 12.8 23.978667 27.733333 31.914667 44.970667 7.936 17.322667 11.946667 35.584 11.946666 55.04 0 19.370667-4.010667 37.717333-11.946666 54.954666a149.333333 149.333333 0 0 1-136.96 87.722667zM1109.333333 1024H85.333333a85.333333 85.333333 0 0 1-85.333333-85.333333V85.333333a85.333333 85.333333 0 0 1 85.333333-85.333333h1024a85.333333 85.333333 0 0 1 85.333334 85.333333v853.333334a85.333333 85.333333 0 0 1-85.333334 85.333333zM120.234667 198.912v616.96c11.434667-15.701333 24.149333-31.402667 38.144-47.189333 13.994667-15.786667 28.672-29.952 43.946666-42.666667 15.274667-12.8 30.976-23.210667 47.189334-31.402667 16.213333-8.192 32.597333-12.288 49.152-12.288 19.712 0 36.693333 1.365333 51.029333 4.096a226.730667 226.730667 0 0 1 69.12 24.576 229.205333 229.205333 0 0 0 68.693333 24.490667c14.08 2.730667 30.976 4.096 50.688 4.096 19.626667 0 36.693333-5.546667 51.029334-16.810667 14.336-11.178667 27.477333-25.258667 39.594666-42.24 12.117333-16.981333 24.149333-35.157333 36.266667-54.528 12.117333-19.370667 25.770667-37.546667 40.96-54.528 15.36-16.896 33.450667-30.976 54.442667-42.24 20.992-11.178667 46.421333-16.810667 76.373333-16.810666 25.429333 0 49.92 7.424 73.386667 22.272 23.637333 14.848 45.397333 34.133333 65.450666 57.685333 20.053333 23.637333 38.4 50.005333 55.296 79.104 16.896 29.013333 31.658667 57.514667 44.373334 85.333333V198.997333a85.333333 85.333333 0 0 0-85.333334-85.333333H205.653333a85.333333 85.333333 0 0 0-85.333333 85.333333z" p-id="10446"></path></svg>