<?xml version="1.0" standalone="no"?><!DOCTYPE svg PUBLIC "-//W3C//DTD SVG 1.1//EN" "http://www.w3.org/Graphics/SVG/1.1/DTD/svg11.dtd"><svg t="1561701110890" class="icon" viewBox="0 0 1059 1024" version="1.1" xmlns="http://www.w3.org/2000/svg" p-id="7423" xmlns:xlink="http://www.w3.org/1999/xlink" width="206.8359375" height="200"><defs><style type="text/css"></style></defs><path d="M1037.576828 838.69131c27.118345 46.150621 28.354207 93.996138 7.521103 129.377104-21.009655 35.663448-64.264828 55.931586-119.348965 55.931586H130.59531c-55.154759 0-97.103448-20.232828-118.113103-55.860966-20.797793-35.275034-14.512552-77.718069 12.605793-123.833379 0.494345-0.812138 3.425103-4.413793 3.990069-5.190621l336.366345-460.764689V30.260966c0-17.408 4.025379-30.260966 21.786483-30.260966h305.505103c17.761103 0 26.412138 12.852966 26.412138 30.260966v358.329379l318.393379 450.100965c0.564966 0.776828-0.529655-0.776828 0 0z m-618.813794-432.19862l-125.563586 171.961379c75.564138-25.211586 186.721103-45.515034 276.515311 7.062069 123.93931 72.598069 184.496552 59.674483 233.648551 40.289103l-147.773793-208.93131c-3.813517-5.296552-0.706207-11.793655-0.706207-18.290759V63.028966h-225.103448v325.314206c0 6.497103-7.238621 12.817655-11.016828 18.149518zM988.142345 936.536276c8.580414-14.583172 5.225931-37.499586-9.18069-62.464l-156.848552-221.748966c-25.035034 10.310621-53.318621 20.338759-90.14731 20.338759-44.208552 0-100.705103-14.406621-178.740965-60.062897-97.880276-57.30869-230.964966-13.982897-294.347035 12.852966l-181.495172 248.549517c-14.37131 24.929103-17.725793 48.09269-9.18069 62.605242 8.898207 15.112828 31.673379 24.364138 62.464 24.364137h795.083035c30.72 0 53.459862-9.286621 62.393379-24.434758zM296.342069 741.41131c46.574345 0.03531 84.285793 39.547586 84.356414 88.346483-0.070621 48.728276-37.782069 88.275862-84.356414 88.311173C249.803034 917.998345 212.056276 878.521379 212.020966 829.757793c0.03531-48.763586 37.782069-88.275862 84.321103-88.346483z m0 144.384c29.519448 0 53.530483-25.176276 53.530483-56.072827 0-30.896552-24.011034-56.037517-53.530483-56.037517-29.484138 0-53.495172 25.140966-53.495172 56.037517s24.011034 56.072828 53.495172 56.072827z m443.144828-120.161103c40.218483 0 72.73931 34.145103 72.809931 76.199724-0.03531 42.089931-32.626759 76.199724-72.774621 76.235035-40.183172-0.070621-72.73931-34.145103-72.774621-76.235035 0-42.054621 32.591448-76.164414 72.739311-76.199724z m0 120.161103c23.128276 0 41.984-19.773793 41.984-43.961379 0-24.222897-18.855724-43.926069-41.94869-43.926069-23.128276 0-41.94869 19.703172-41.94869 43.926069 0 24.222897 18.820414 43.961379 41.94869 43.961379z m-241.946483-233.189517c34.180414 0 61.969655 29.166345 61.969655 64.935724s-27.789241 64.900414-61.969655 64.900414c-34.251034 0-61.969655-29.060414-62.004966-64.900414 0.03531-35.84 27.789241-64.900414 62.004966-64.935724z m0 97.562483c17.160828 0 31.143724-14.618483 31.143724-32.626759s-13.982897-32.626759-31.143724-32.626758c-17.196138 0-31.179034 14.653793-31.179035 32.626758 0.03531 18.008276 13.982897 32.626759 31.179035 32.626759z" p-id="7424"></path></svg>