<?xml version="1.0" standalone="no"?><!DOCTYPE svg PUBLIC "-//W3C//DTD SVG 1.1//EN" "http://www.w3.org/Graphics/SVG/1.1/DTD/svg11.dtd"><svg t="1556503686902" class="icon" style="" viewBox="0 0 1024 1024" version="1.1" xmlns="http://www.w3.org/2000/svg" p-id="13892" xmlns:xlink="http://www.w3.org/1999/xlink" width="200" height="200"><defs><style type="text/css"></style></defs><path d="M512 1024C229.2224 1024 0 794.7776 0 512 0 229.2224 229.2224 0 512 0c282.7776 0 512 229.2224 512 512 0 282.7776-229.2224 512-512 512z m-2.901333-779.127467v-0.017066l-211.336534 116.855466a47.223467 47.223467 0 0 0-24.405333 41.301334v231.850666c0 17.186133 9.352533 33.024 24.405333 41.335467l211.3536 116.804267c14.216533 7.850667 31.470933 7.850667 45.687467 0l211.3536-116.821334a47.223467 47.223467 0 0 0 24.405333-41.3184V402.9952a47.223467 47.223467 0 0 0-24.405333-41.335467l-211.3536-116.7872a47.223467 47.223467 0 0 0-45.704533 0zM364.458667 426.325333v0.017067a23.6032 23.6032 0 0 1 32.085333-9.250133l135.424 74.837333 135.458133-74.837333a23.6032 23.6032 0 0 1 22.818134 41.301333l-134.673067 74.4448v148.411733a23.6032 23.6032 0 0 1-47.223467 0v-148.411733l-134.656-74.410667a23.6032 23.6032 0 0 1-9.233066-32.085333z" p-id="13893"></path></svg>