<?xml version="1.0" standalone="no"?><!DOCTYPE svg PUBLIC "-//W3C//DTD SVG 1.1//EN" "http://www.w3.org/Graphics/SVG/1.1/DTD/svg11.dtd"><svg t="1556418003915" class="icon" style="" viewBox="0 0 1293 1024" version="1.1" xmlns="http://www.w3.org/2000/svg" p-id="10923" xmlns:xlink="http://www.w3.org/1999/xlink" width="252.5390625" height="200"><defs><style type="text/css"></style></defs><path d="M101.483789 76.530526l544.498527 448.080842 493.082947-459.344842a83.213474 83.213474 0 0 0-17.515789-1.886315H146.270316c-16.491789 0-31.851789 4.850526-44.732632 13.150315z m-31.474526 37.187369c-4.257684 10.024421-6.629053 21.018947-6.629052 32.552421v731.459368c0 45.810526 37.133474 82.890105 82.890105 82.890105H1121.549474c45.756632 0 82.890105-37.133474 82.890105-82.890105V146.270316c0-21.288421-8.084211-40.744421-21.288421-55.457684l-534.689684 498.364631-0.269474 0.377263L70.009263 113.717895zM146.270316 0H1121.549474c80.788211 0 146.270316 65.482105 146.270315 146.270316v731.459368c0 80.788211-65.482105 146.270316-146.270315 146.270316H146.270316A146.270316 146.270316 0 0 1 0 877.729684V146.270316C0 65.482105 65.482105 0 146.270316 0z" p-id="10924"></path></svg>