<?xml version="1.0" standalone="no"?><!DOCTYPE svg PUBLIC "-//W3C//DTD SVG 1.1//EN" "http://www.w3.org/Graphics/SVG/1.1/DTD/svg11.dtd"><svg t="1575294510910" class="icon" viewBox="0 0 1024 1024" version="1.1" xmlns="http://www.w3.org/2000/svg" p-id="2461" xmlns:xlink="http://www.w3.org/1999/xlink" width="200" height="200"><defs><style type="text/css"></style></defs><path d="M448 320h512c38.4 0 64 25.6 64 64s-25.6 64-64 64H448c-38.4 0-64-25.6-64-64s25.6-64 64-64zM64 64h896c38.4 0 64 25.6 64 64s-25.6 64-64 64H64c-38.4 0-64-25.6-64-64s25.6-64 64-64z m0 768h896c38.4 0 64 25.6 64 64s-25.6 64-64 64H64c-38.4 0-64-25.6-64-64s25.6-64 64-64z m384-256h512c38.4 0 64 25.6 64 64s-25.6 64-64 64H448c-38.4 0-64-25.6-64-64s25.6-64 64-64zM38.4 326.4l211.2 172.8c6.4 0 6.4 6.4 6.4 12.8s0 12.8-6.4 19.2L38.4 704c-12.8 0-25.6 0-32-6.4S0 339.2 6.4 326.4c0-6.4 6.4-6.4 12.8-6.4s12.8 0 19.2 6.4z" p-id="2462"></path></svg>