<?xml version="1.0" standalone="no"?><!DOCTYPE svg PUBLIC "-//W3C//DTD SVG 1.1//EN" "http://www.w3.org/Graphics/SVG/1.1/DTD/svg11.dtd"><svg t="1552972025467" class="icon" style="" viewBox="0 0 1024 1024" version="1.1" xmlns="http://www.w3.org/2000/svg" p-id="4573" xmlns:xlink="http://www.w3.org/1999/xlink" width="200" height="200"><defs><style type="text/css"></style></defs><path d="M512.182044 0.682667C241.163378 0.682667 0.705422 241.186133 0.705422 512.2048c0 271.018667 240.457956 511.499378 511.476622 511.499378s511.499378-240.457956 511.499378-511.499378c0-271.018667-240.457956-511.476622-511.499378-511.476622z m244.371912 140.515555v15.542045c0 46.648889-4.437333 91.090489-13.334756 135.509333-31.084089 6.667378-53.316267 33.336889-53.316267 64.420978 0 17.772089 6.667378 35.544178 20.002134 46.648889-15.542044 35.566933-31.106844 71.111111-53.316267 104.425244a670.606222 670.606222 0 0 1-159.971556-342.107022c51.108978-31.106844 106.655289-55.546311 164.408889-71.088356 33.336889 11.104711 66.651022 26.646756 95.527823 46.648889z m-93.297778 437.634845c39.981511 37.774222 82.193067 71.088356 128.841955 97.757866-46.648889 8.874667-95.527822 13.312-146.614044 13.312-22.232178 0-44.4416-2.207289-66.651022-2.207289 0-4.460089 0-8.874667-2.230045-13.334755 31.106844-28.899556 59.983644-62.213689 86.653156-95.527822zM512.182044 67.879822c24.439467 0 48.878933 2.230044 73.3184 6.667378-31.106844 13.334756-62.213689 26.646756-93.297777 42.211556-2.230044-15.5648-2.230044-31.106844-2.230045-46.648889 6.667378-2.230044 15.542044-2.230044 22.209422-2.230045z m119.967289 477.639111c-24.439467 33.314133-51.086222 62.190933-79.985777 91.067734-11.104711-8.874667-24.416711-13.334756-39.981512-13.334756-28.8768 0-53.316267 17.772089-62.190933 44.4416-88.860444-22.209422-173.283556-55.523556-248.809244-102.172444a687.468089 687.468089 0 0 1 95.505066-208.850489c4.460089 0 8.897422 2.230044 15.5648 2.230044 37.774222 0 66.651022-28.899556 66.651023-66.651022 0-8.874667-2.230044-17.749333-4.460089-26.646756 26.669511-26.669511 53.316267-48.878933 82.215822-71.088355 24.416711 133.279289 86.6304 253.246578 175.490844 351.004444zM134.530844 745.449244c-39.981511-66.651022-64.420978-142.176711-66.651022-224.369777 26.669511 22.209422 53.316267 44.418844 82.193067 62.190933-8.874667 48.878933-15.542044 99.965156-15.542045 151.074133v11.104711z m28.8768-206.620444c-33.314133-22.209422-62.213689-46.648889-91.090488-73.272889 22.232178-199.953067 177.720889-359.901867 375.443911-391.008711 0 24.439467 2.230044 46.648889 4.437333 71.088356a1007.934578 1007.934578 0 0 0-106.632533 86.6304 62.691556 62.691556 0 0 0-33.314134-8.874667c-37.774222 0-66.651022 28.8768-66.651022 66.651022 0 15.542044 6.667378 28.8768 15.542045 42.211556-44.418844 62.190933-77.732978 131.072-97.735112 206.597689zM183.409778 809.870222c-2.230044-24.439467-4.460089-48.878933-4.460089-75.548444 0-42.1888 4.460089-84.400356 13.334755-124.381867 79.985778 46.648889 166.616178 82.193067 257.706667 102.172445 0 2.230044 0 2.230044 2.207289 4.460088-77.755733 51.086222-166.616178 84.423111-262.144 99.965156-4.437333-2.230044-4.437333-4.437333-6.644622-6.667378z m328.772266 146.614045c-108.839822 0-206.597689-39.981511-284.353422-104.402489 93.297778-17.772089 177.720889-53.316267 253.269334-104.402489 8.874667 6.644622 19.979378 8.874667 31.084088 8.874667 22.209422 0 39.981511-11.104711 53.316267-26.646756 26.669511 2.207289 53.316267 4.437333 79.985778 4.437333 71.088356 0 139.946667-8.874667 206.597689-24.439466 15.542044 6.667378 31.106844 15.542044 46.648889 20.002133a441.093689 441.093689 0 0 1-386.548623 226.577067zM856.519111 663.256178a655.9744 655.9744 0 0 1-168.846222-122.197334c24.462222-37.774222 44.4416-77.755733 62.213689-117.737244h6.667378c37.774222 0 66.651022-28.8768 66.651022-66.651022 0-26.646756-15.5648-48.856178-37.774222-59.983645 8.874667-39.981511 13.334756-79.963022 13.334755-122.174577 95.527822 82.193067 155.511467 202.160356 155.511467 337.692444 0 44.418844-6.667378 84.400356-17.772089 124.381867a422.2976 422.2976 0 0 1-79.985778 26.669511z" p-id="4574"></path></svg>