<?xml version="1.0" standalone="no"?><!DOCTYPE svg PUBLIC "-//W3C//DTD SVG 1.1//EN" "http://www.w3.org/Graphics/SVG/1.1/DTD/svg11.dtd"><svg t="1549945164772" class="icon" style="" viewBox="0 0 1194 1024" version="1.1" xmlns="http://www.w3.org/2000/svg" p-id="5878" xmlns:xlink="http://www.w3.org/1999/xlink" width="233.203125" height="200"><defs><style type="text/css"></style></defs><path d="M1097.216 348.757333a569.429333 569.429333 0 0 0-122.368-181.504A569.429333 569.429333 0 0 0 571.050667 0 569.429333 569.429333 0 0 0 167.253333 167.253333 569.429333 569.429333 0 0 0 0 571.050667c0 169.130667 74.24 328.533333 203.861333 437.333333l2.133334 1.792a41.301333 41.301333 0 0 0 26.282666 9.557333h677.717334c9.557333 0 18.858667-3.413333 26.282666-9.557333l2.133334-1.706667a570.282667 570.282667 0 0 0 203.690666-437.418666 569.173333 569.173333 0 0 0-44.885333-222.293334zM532.821333 153.002667a10.24 10.24 0 0 1 10.24-10.24h56.064a10.24 10.24 0 0 1 10.24 10.24v101.888a10.24 10.24 0 0 1-10.24 10.24h-56.149333a10.24 10.24 0 0 1-10.24-10.24V152.917333zM262.570667 599.04a10.24 10.24 0 0 1-10.24 10.24H150.528a10.24 10.24 0 0 1-10.24-10.24v-56.149333a10.24 10.24 0 0 1 10.24-10.24h101.973333a10.24 10.24 0 0 1 10.24 10.24v56.149333z m115.626666-260.693333l-39.68 39.594666a10.24 10.24 0 0 1-14.336 0l-72.192-72.106666a10.24 10.24 0 0 1 0-14.421334l39.68-39.594666a10.24 10.24 0 0 1 14.336 0l72.192 72.106666a10.24 10.24 0 0 1 0 14.421334zM749.226667 445.013333L641.536 552.704a71.338667 71.338667 0 1 1-50.517333-50.517333L698.88 394.496a10.24 10.24 0 0 1 14.421333 0l36.010667 36.096a10.24 10.24 0 0 1 0 14.421333z m54.869333-66.816l-39.68-39.68a10.24 10.24 0 0 1 0-14.336l72.106667-72.192a10.24 10.24 0 0 1 14.506666 0l39.594667 39.68a10.24 10.24 0 0 1 0 14.336l-72.192 72.192a10.24 10.24 0 0 1-14.336 0z m192.682667 220.928a10.24 10.24 0 0 1-10.24 10.24h-101.888a10.24 10.24 0 0 1-10.24-10.24v-56.149333a10.24 10.24 0 0 1 10.24-10.24h101.973333a10.24 10.24 0 0 1 10.24 10.24v56.149333z" p-id="5879"></path></svg>