<?xml version="1.0" standalone="no"?><!DOCTYPE svg PUBLIC "-//W3C//DTD SVG 1.1//EN" "http://www.w3.org/Graphics/SVG/1.1/DTD/svg11.dtd"><svg t="1576412159253" class="icon" viewBox="0 0 1024 1024" version="1.1" xmlns="http://www.w3.org/2000/svg" p-id="3212" xmlns:xlink="http://www.w3.org/1999/xlink" width="200" height="200"><defs><style type="text/css"></style></defs><path d="M192.246519 253.041778v2.958222c6.826667 187.771259 41.79437 355.669333 57.799111 372.015407 37.167407 49.455407 152.120889 130.958222 216.936296 171.994074 16.004741 10.277926 29.582222 12.136296 45.018074 12.553482 15.322074-0.455111 29.013333-2.958222 45.018074-12.553482 66.180741-39.063704 182.651259-122.500741 219.553185-171.994074 16.232296-16.346074 48.545185-184.244148 55.447704-372.015407l0.227556-2.958222c0-17.256296-11.112296-32.237037-26.548149-37.736297-80.440889-27.875556-198.162963-35.422815-293.470814-35.422814-95.573333 0-213.371259 7.433481-293.584593 35.422814a40.201481 40.201481 0 0 0-26.396444 37.736297zM0 129.934222l0.227556 4.702815c10.846815 300.335407 59.088593 564.451556 85.143703 590.734222 59.657481 79.303111 250.614519 202.638222 353.848889 270.032593 24.538074 16.042667 47.976296 28.027259 72.779852 28.596148 24.803556-0.682667 48.241778-12.553481 72.817778-28.558222 103.158519-67.432296 294.153481-190.767407 353.924741-270.070519 26.055111-26.282667 74.296889-290.398815 85.143703-590.734222l0.227556-4.702815a64.474074 64.474074 0 0 0-42.628741-60.567703C851.892148 24.576 666.055111 0 512 0 357.944889 0 172.107852 24.576 42.628741 69.404444A64.474074 64.474074 0 0 0 0 129.896296z m103.424 69.707852c0-22.148741 14.298074-41.111704 33.943704-48.203852 102.4-35.422815 252.814222-44.828444 374.632296-44.828444 121.818074 0 272.232296 9.40563 374.632296 44.828444 19.64563 7.092148 33.943704 26.055111 33.943704 48.203852l-0.227556 3.678815c-8.722963 237.795556-49.948444 453.707852-70.618074 474.605037-47.445333 62.767407-198.428444 163.460741-280.120889 216.708741-19.456 12.553481-37.925926 22.148741-57.609481 22.603852-19.64563-0.455111-38.153481-10.05037-57.609481-22.603852-81.692444-53.361778-232.789333-154.055111-280.120889-216.708741-20.66963-20.897185-61.819259-236.771556-70.618074-474.605037l-0.227556-3.678815z" fill="#353E4F" p-id="3213" data-spm-anchor-id="a313x.7781069.0.i1" class="selected"></path></svg>