<?xml version="1.0" standalone="no"?><!DOCTYPE svg PUBLIC "-//W3C//DTD SVG 1.1//EN" "http://www.w3.org/Graphics/SVG/1.1/DTD/svg11.dtd"><svg t="1567584365804" class="icon" viewBox="0 0 1024 1024" version="1.1" xmlns="http://www.w3.org/2000/svg" p-id="3294" xmlns:xlink="http://www.w3.org/1999/xlink" width="200" height="200"><defs><style type="text/css"></style></defs><path d="M639.36 0v86.4C842.624 142.016 992 327.04 992 546.432 992 809.856 776.64 1024 512 1024S32 809.856 32 546.688c0-219.328 149.44-404.736 352.64-460.224V0h254.72zM512 155.84c-216.448 0-392.704 175.36-392.704 390.528 0 215.232 176.256 390.528 392.704 390.528s392.704-175.36 392.704-390.528c0-215.232-176.256-390.528-392.704-390.528z m2.368 67.84c177.728 0 321.856 143.232 321.856 320 0 176.64-144.128 320-321.856 320s-321.792-143.36-321.792-320c0-176.768 144-320 321.792-320z m4.992 44.672v3.392l-47.168 273.088c-3.84 22.848 16.064 43.52 42.24 43.52 25.472 0 45.44-19.776 42.24-42.304l-37.312-277.696z" p-id="3295"></path></svg>