<?xml version="1.0" standalone="no"?><!DOCTYPE svg PUBLIC "-//W3C//DTD SVG 1.1//EN" "http://www.w3.org/Graphics/SVG/1.1/DTD/svg11.dtd"><svg t="1536201542810" class="icon" style="" viewBox="0 0 1024 1024" version="1.1" xmlns="http://www.w3.org/2000/svg" p-id="2678" xmlns:xlink="http://www.w3.org/1999/xlink" width="200" height="200"><defs><style type="text/css"></style></defs><path d="M421.546667 581.768533V614.4a34.133333 34.133333 0 0 0 34.133333 34.133333h119.466667a34.133333 34.133333 0 0 0 34.133333-34.133333v-38.8608a159.573333 159.573333 0 1 0-187.733333 6.229333zM512 1024C229.2224 1024 0 794.7776 0 512 0 229.2224 229.2224 0 512 0c282.7776 0 512 229.2224 512 512 0 282.7776-229.2224 512-512 512z m-58.026667-341.333333v25.6a25.6 25.6 0 0 0 25.6 25.6h71.68a25.6 25.6 0 0 0 25.6-25.6V682.666667h-122.88z" p-id="2679"></path></svg>