<?xml version="1.0" standalone="no"?><!DOCTYPE svg PUBLIC "-//W3C//DTD SVG 1.1//EN" "http://www.w3.org/Graphics/SVG/1.1/DTD/svg11.dtd"><svg t="1549951579727" class="icon" style="" viewBox="0 0 1024 1024" version="1.1" xmlns="http://www.w3.org/2000/svg" p-id="1980" xmlns:xlink="http://www.w3.org/1999/xlink" width="200" height="200"><defs><style type="text/css"></style></defs><path d="M465.45463 951.388292A393.308376 393.308376 0 0 1 72.611708 558.54537 393.308376 393.308376 0 0 1 465.45463 165.702448V93.091671a462.660977 462.660977 0 0 0-329.168856 136.284843A463.871157 463.871157 0 0 0 0.000931 558.54537a463.871157 463.871157 0 0 0 136.284843 329.168856A463.871157 463.871157 0 0 0 465.45463 1023.999069a462.660977 462.660977 0 0 0 329.168856-136.284843A463.778066 463.778066 0 0 0 930.908329 558.54537h-72.610777A393.308376 393.308376 0 0 1 465.45463 951.388292z" p-id="1981"></path><path d="M990.020949 263.726997a430.2654 430.2654 0 0 0-92.439105-137.308841A430.2654 430.2654 0 0 0 592.244218 0.000931H558.54537v465.453699h465.453699v-33.698848a429.148311 429.148311 0 0 0-33.97812-168.028785zM625.943066 398.056934V68.888078a365.008791 365.008791 0 0 1 329.168856 329.168856H625.943066z" p-id="1982"></path></svg>