<?xml version="1.0" standalone="no"?><!DOCTYPE svg PUBLIC "-//W3C//DTD SVG 1.1//EN" "http://www.w3.org/Graphics/SVG/1.1/DTD/svg11.dtd"><svg t="1564463924066" class="icon" viewBox="0 0 1181 1024" version="1.1" xmlns="http://www.w3.org/2000/svg" p-id="6034" xmlns:xlink="http://www.w3.org/1999/xlink" width="230.6640625" height="200"><defs><style type="text/css"></style></defs><path d="M169.86624 1005.331692A588.878769 588.878769 0 0 1 0.000394 590.769231C0.000394 264.507077 264.507471 0 590.769625 0c326.262154 0 590.769231 264.507077 590.76923 590.769231 0 149.031385-55.177846 285.184-146.235077 389.12L1024.000394 964.923077a81.959385 81.959385 0 0 0-3.308308-3.780923c-42.929231-44.465231-309.523692-81.880615-320-161.555692-2.835692-21.661538-3.702154-59.549538-2.914461-68.804924a264.349538 264.349538 0 0 0 43.756307-51.987692c5.316923-9.058462 16.147692-34.461538 24.497231-65.969231 13.784615-1.614769 26.308923-26.978462 35.524923-54.941538 9.846154-30.050462 2.363077-56.398769-11.618461-61.243077 9.570462-39.857231 17.644308-104.881231-5.868308-156.16-10.633846-23.236923 2.087385-72.192-34.382769-110.867692-43.244308 26.781538-147.022769-44.228923-233.865846-0.787693-35.761231 17.92-50.648615 44.465231-56.044308 70.380308-28.593231 22.843077-35.603692 51.830154-39.384616 69.632-9.846154 46.316308-11.382154 87.000615 1.417847 129.260308-11.776 7.601231-17.250462 32.216615-8.192 59.785846 9.176615 27.963077 21.700923 53.287385 35.485538 54.941538 8.310154 31.507692 19.219692 56.910769 24.497231 65.969231 4.529231 7.719385 24.339692 35.997538 48.285538 55.926154h0.984616c0 15.556923-1.024 48.64-3.15077 64.866462-10.515692 79.675077-282.112 114.451692-320.039384 161.555692-0.551385 0.708923-19.062154 28.16-29.814154 44.189538z" p-id="6035"></path></svg>