<?xml version="1.0" standalone="no"?><!DOCTYPE svg PUBLIC "-//W3C//DTD SVG 1.1//EN" "http://www.w3.org/Graphics/SVG/1.1/DTD/svg11.dtd"><svg t="1557196354691" class="icon" style="" viewBox="0 0 1024 1024" version="1.1" xmlns="http://www.w3.org/2000/svg" p-id="3912" xmlns:xlink="http://www.w3.org/1999/xlink" width="200" height="200"><defs><style type="text/css"></style></defs><path d="M384 0H85.307077C38.439385 0 0 38.360615 0 85.307077v298.692923c0 46.946462 38.360615 85.307077 85.307077 85.307077h298.692923c46.946462 0 85.307077-38.360615 85.307077-85.307077V85.307077C469.307077 38.439385 430.946462 0 384 0z m0 384H85.307077V85.307077h298.692923v298.692923z m3.465846 42.692923v-42.692923 42.692923zM938.692923 0H640c-46.946462 0-85.307077 38.360615-85.307077 85.307077v298.692923c0 46.946462 38.360615 85.307077 85.307077 85.307077h298.692923c46.867692 0 85.307077-38.360615 85.307077-85.307077V85.307077C1024 38.439385 985.560615 0 938.692923 0z m0 384H640V85.307077h298.692923v298.692923zM384 554.692923H85.307077C38.439385 554.692923 0 593.053538 0 640v298.692923C0 985.560615 38.360615 1024 85.307077 1024h298.692923c46.946462 0 85.307077-38.439385 85.307077-85.307077V640c0-46.946462-38.360615-85.307077-85.307077-85.307077z m0 384H85.307077V640h298.692923v298.692923z m3.465846 42.614154v-42.614154 42.614154z m551.227077-426.614154H640c-46.946462 0-85.307077 38.360615-85.307077 85.307077v298.692923c0 46.867692 38.360615 85.307077 85.307077 85.307077h298.692923c46.867692 0 85.307077-38.439385 85.307077-85.307077V640c0-46.946462-38.439385-85.307077-85.307077-85.307077z m0 384H640V640h298.692923v298.692923z" p-id="3913"></path></svg>