<?xml version="1.0" standalone="no"?><!DOCTYPE svg PUBLIC "-//W3C//DTD SVG 1.1//EN" "http://www.w3.org/Graphics/SVG/1.1/DTD/svg11.dtd"><svg t="1531813030700" class="icon" style="" viewBox="0 0 1024 1024" version="1.1" xmlns="http://www.w3.org/2000/svg" p-id="1355" xmlns:xlink="http://www.w3.org/1999/xlink" width="200" height="200"><defs><style type="text/css"></style></defs><path d="M870.4 0h-512C271.36 0 204.8 66.56 204.8 153.6v153.6H51.2C25.6 307.2 0 332.8 0 358.4v358.4c0 25.6 25.6 51.2 51.2 51.2h153.6v102.4c0 81.92 66.56 153.6 153.6 153.6h512c87.04 0 153.6-71.68 153.6-153.6V153.6C1024 66.56 952.32 0 870.4 0zM235.52 583.68l-40.96 61.44c-5.12 10.24-10.24 15.36-15.36 20.48s-10.24 5.12-15.36 5.12-15.36 0-20.48-5.12-10.24-10.24-10.24-15.36 5.12-15.36 10.24-25.6l51.2-76.8-40.96-61.44c-10.24-15.36-15.36-20.48-15.36-30.72 0-5.12 5.12-10.24 5.12-15.36 10.24-5.12 15.36-5.12 20.48-5.12s10.24 0 15.36 5.12c10.24 5.12 15.36 10.24 20.48 20.48l35.84 51.2 35.84-51.2c5.12-10.24 10.24-15.36 15.36-20.48s10.24-5.12 20.48-5.12 15.36 0 20.48 5.12 5.12 10.24 5.12 15.36 0 10.24-5.12 10.24-5.12 10.24-10.24 20.48l-46.08 61.44 51.2 76.8c10.24 10.24 10.24 20.48 10.24 25.6s0 10.24-5.12 15.36-10.24 5.12-20.48 5.12c-5.12 0-10.24 0-15.36-5.12s-10.24-10.24-15.36-20.48l-40.96-61.44zM972.8 870.4c0 56.32-46.08 102.4-102.4 102.4h-512c-56.32 0-102.4-46.08-102.4-102.4v-102.4h204.8c25.6 0 51.2-25.6 51.2-51.2V358.4c0-25.6-20.48-51.2-51.2-51.2H256V153.6c0-56.32 46.08-102.4 102.4-102.4h512c56.32 0 102.4 46.08 102.4 102.4v716.8z" p-id="1356"></path><path d="M794.624 361.393231H590.769231v51.633231h203.854769c11.145846 0 18.550154-10.318769 18.550154-25.796924s-7.404308-25.836308-18.510769-25.836307z m0 154.899692H590.769231v51.633231h203.854769c11.145846 0 18.550154-10.318769 18.550154-25.796923 0-15.517538-7.404308-25.836308-18.510769-25.836308z m0 154.899692H590.769231v51.593847h203.854769c11.145846 0 18.550154-10.279385 18.550154-25.796924 0-15.478154-7.404308-25.796923-18.510769-25.796923z" p-id="1357"></path></svg>