<?xml version="1.0" standalone="no"?><!DOCTYPE svg PUBLIC "-//W3C//DTD SVG 1.1//EN" "http://www.w3.org/Graphics/SVG/1.1/DTD/svg11.dtd"><svg t="1555985313497" class="icon" style="" viewBox="0 0 1024 1024" version="1.1" xmlns="http://www.w3.org/2000/svg" p-id="5761" xmlns:xlink="http://www.w3.org/1999/xlink" width="200" height="200"><defs><style type="text/css"></style></defs><path d="M791.272727 372.363636a185.250909 185.250909 0 0 0 93.090909-24.948363V837.818182a186.181818 186.181818 0 0 1-186.181818 186.181818H232.727273a186.181818 186.181818 0 0 1-186.181818-186.181818V279.272727a186.181818 186.181818 0 0 1 186.181818-186.181818h397.312A185.250909 185.250909 0 0 0 605.090909 186.181818H232.727273a93.090909 93.090909 0 0 0-93.090909 93.090909v558.545455a93.090909 93.090909 0 0 0 93.090909 93.090909h465.454545a93.090909 93.090909 0 0 0 93.090909-93.090909V372.363636z m-558.545454 69.818182v-58.274909h290.816v58.181818H232.727273z m0 174.452364v-58.181818h465.361454v58.181818H232.727273z m0 174.452363v-58.181818h465.361454v58.181818H232.727273zM884.363636 21.410909L959.767273 93.090909 639.813818 413.044364l-73.541818-73.541819L884.363636 21.224727z" p-id="5762"></path></svg>