<?xml version="1.0" standalone="no"?><!DOCTYPE svg PUBLIC "-//W3C//DTD SVG 1.1//EN" "http://www.w3.org/Graphics/SVG/1.1/DTD/svg11.dtd"><svg t="1552962530520" class="icon" style="" viewBox="0 0 1066 1024" version="1.1" xmlns="http://www.w3.org/2000/svg" p-id="2503" xmlns:xlink="http://www.w3.org/1999/xlink" width="208.203125" height="200"><defs><style type="text/css"></style></defs><path d="M274.090667 0.853333c24.874667 0 45.098667 20.181333 45.098666 45.141334v107.946666a45.098667 45.098667 0 1 1-90.24 0V45.866667A45.141333 45.141333 0 0 1 274.090667 0.896z m488.533333 0c24.832 0 45.098667 20.181333 45.098667 45.141334v107.946666a45.098667 45.098667 0 1 1-90.24 0V45.866667c0-24.832 20.266667-44.970667 45.141333-44.970667zM44.330667 284.245333c-20.693333 0-38.186667 13.994667-43.434667 33.024V131.925333c0-42.581333 34.432-77.013333 77.013333-77.013333h121.472v100.266667c0 43.093333 34.858667 77.952 77.994667 77.952 43.136 0 78.037333-34.858667 78.037333-77.994667v-100.266667h331.392v100.266667c0 43.136 34.858667 77.994667 77.994667 77.994667 43.136 0 78.037333-34.858667 78.037333-77.994667v-100.266667h121.898667c42.581333 0 77.013333 34.474667 77.013333 77.056v183.082667c0-17.578667-20.224-30.805333-45.098666-30.805333H44.330667z m952.192 90.112c25.002667 0 40.704-13.226667 45.141333-29.610666v594.517333c0 42.581333-34.474667 77.013333-77.056 77.013333H77.909333A76.970667 76.970667 0 0 1 0.853333 939.221333V341.290667c5.248 19.072 22.741333 33.024 43.434667 33.024h952.192z m-202.88 106.624a45.013333 45.013333 0 0 0-63.701334 0l-269.909333 269.909334-136.32-136.32a45.013333 45.013333 0 1 0-63.701333 63.701333l165.546666 165.546667c9.514667 9.514667 22.186667 13.909333 34.56 13.141333a44.8 44.8 0 0 0 34.56-13.098667l299.093334-299.093333a45.226667 45.226667 0 0 0-0.128-63.786667z" p-id="2504"></path></svg>