<?xml version="1.0" standalone="no"?><!DOCTYPE svg PUBLIC "-//W3C//DTD SVG 1.1//EN" "http://www.w3.org/Graphics/SVG/1.1/DTD/svg11.dtd"><svg t="1567490364718" class="icon" viewBox="0 0 1024 1024" version="1.1" xmlns="http://www.w3.org/2000/svg" p-id="13013" xmlns:xlink="http://www.w3.org/1999/xlink" width="200" height="200"><defs><style type="text/css"></style></defs><path d="M512 0c282.784 0 512 229.216 512 512s-229.216 512-512 512S0 794.784 0 512 229.216 0 512 0z m-0.448 719.584c-15.04 0-27.392 4.736-37.984 16.064-10.592 10.4-15.04 23.616-15.04 39.68s4.448 29.28 15.04 40.64c10.592 10.368 22.976 16.032 37.984 16.032 15.04 0 28.288-5.664 38.88-16.064 9.728-10.4 15.04-23.616 15.04-40.64 0-16.032-5.312-29.248-15.04-39.648-10.592-11.328-23.872-16.064-38.88-16.064zM576 224h-128l12.032 440.096h103.136L576 224z" p-id="13014"></path></svg>