<?xml version="1.0" standalone="no"?><!DOCTYPE svg PUBLIC "-//W3C//DTD SVG 1.1//EN" "http://www.w3.org/Graphics/SVG/1.1/DTD/svg11.dtd"><svg t="1557909087048" class="icon" style="" viewBox="0 0 1024 1024" version="1.1" xmlns="http://www.w3.org/2000/svg" p-id="5874" xmlns:xlink="http://www.w3.org/1999/xlink" width="200" height="200"><defs><style type="text/css"></style></defs><path d="M273.457112 832.250301H46.537242v106.594525c0 15.898844 8.31076 24.209604 24.932279 24.209604h181.391361c8.672097 0 15.898844-2.168024 21.318905-6.504073 7.226747-6.504073 11.924133-29.629664 14.092157-69.376775l25.293616 7.949422c-3.613374 44.805834-9.756109 71.5448-18.428206 80.939571-7.949422 7.588085-19.873555 11.562796-35.049725 12.285471H64.242774c-29.268327 0-43.721822-15.17617-43.721822-44.805834v-189.70212h26.01629v53.477931h200.542242v-94.309054H6.067457v-25.293616h267.389655v144.534948zM571.921781 701.80751h22.764254v224.390508h-22.764254V701.80751z m50.587232 295.212633h-44.805834l-5.420061-23.125592c14.453495 0.722675 28.545652 1.445349 41.915135 1.44535 10.117446 0 15.17617-6.142735 15.17617-18.066869v-287.26321h23.848266v293.044608c0 22.402917-10.478784 33.965713-30.713676 33.965713z m-282.927162-183.559385h22.041579v-130.804128h76.242186v130.804128h25.654953v-130.804128h75.880848v130.804128h19.873556v23.486929h-19.873556v136.224189c0 16.621519-8.672097 25.293616-25.293616 25.293616h-20.234892l-5.781398-21.680242c6.504073 0.722675 13.008145 1.084012 19.15088 1.084012 6.142735 0 9.394772-4.336048 9.394772-12.28547v-128.636105h-31.075014v5.058723c-0.361337 64.318052-7.588085 116.711971-21.318905 156.459082l-18.066869-16.260181c11.201459-36.495075 16.982856-82.746258 17.344194-138.392214v-6.86541h-25.654953v135.501515c0 16.982856-9.033434 25.654953-27.100303 25.654953h-21.318905l-5.781398-21.680242c7.226747 0.722675 13.73082 1.084012 19.873556 1.084012 7.949422 0 11.924133-4.336048 11.924133-12.646808v-127.91343H384.026348c-1.084012 66.486076-10.840121 120.325345-28.90699 161.517805l-18.428206-16.621519c15.898844-38.301761 24.209604-86.359632 24.932278-144.896286h-22.041579v-23.486929z m177.055312 0v-108.401211h-31.075014v108.401211h31.075014z m-101.174464 0v-108.401211H384.026348v108.401211h31.436351z m286.179198-130.442791h102.619814v20.59623a1315.177699 1315.177699 0 0 1-34.32705 102.619814c20.234893 31.436351 31.075014 59.982004 32.520363 85.275619 0 15.898844-3.613374 27.100303-10.117446 33.965713-9.394772 8.672097-26.016291 13.369483-49.50322 13.369483l-8.672097-26.377628c5.781398 0.722675 10.478784 1.445349 14.092157 1.445349 11.201459-0.722675 18.789543-2.529362 22.402917-5.781398s5.781398-8.672097 5.781398-16.621519c0-24.209604-10.840121-51.309907-32.520363-81.300908 14.453495-37.940424 25.654953-72.267474 33.965713-102.619814h-50.94857v292.683271h-25.293616V683.017967z m195.122181 313.279501H859.184991l-5.781398-25.293616c11.924133 0.722675 23.486929 1.445349 34.327051 1.44535 6.504073 0 9.756109-4.336048 9.756109-12.646808v-101.174464h-84.552945v-25.293616h84.552945v-42.63781h-47.696533v-24.209604h118.518658v24.209604H924.225718v42.63781h80.939571v25.293616H924.225718v107.678536c0 19.873555-9.394772 29.991002-27.46164 29.991002z m1.084012-322.312935h25.293616c21.680242 37.217749 54.200606 68.292763 97.199753 93.225041l-15.17617 22.04158a270.159908 270.159908 0 0 1-94.670391-90.334343c-26.738966 38.301761-58.897992 69.376775-96.477078 92.502367l-14.814832-22.041579a311.201811 311.201811 0 0 0 98.645102-95.393066z m67.931426 209.214338c19.150881 29.629664 33.965713 55.645955 44.444497 78.048872l-21.680243 14.814832c-10.478784-24.209604-24.932279-50.948569-42.999147-80.578234l20.234893-12.28547z m-119.60267 1.806687l22.402917 11.201458c-14.453495 31.436351-31.075014 58.897992-50.225895 82.023584l-21.318905-15.17617a319.783574 319.783574 0 0 0 49.141883-78.048872zM474.601582 288.317111l25.233393-288.317111 165.341959 14.453495c16.260182 1.445349 28.395095 15.477284 27.009969 31.436351l-30.262005 345.950422a29.298439 29.298439 0 0 1-32.068692 26.227071l-165.311847-14.453495 5.028611-57.663422 165.341959 14.453495-57.573088-90.213897a30.111448 30.111448 0 0 0-47.274972-4.125269l-40.499897 44.173494-14.935279-21.921134z m86.871526-108.611991c32.610698 2.830476 61.306907-20.656453 64.077161-52.514365 2.800365-31.8278-21.379128-59.951892-53.989826-62.81248-32.610698-2.860588-61.337019 20.656453-64.137383 52.484253-2.770253 31.857912 21.409239 59.982004 54.050048 62.842592z m-108.882994 110.298232l-52.935925-54.200606a30.111448 30.111448 0 0 0-46.100626 4.065046l-84.914283 124.300056 189.009557-16.561296 5.028612 57.693533-188.979446 16.531185a29.298439 29.298439 0 0 1-32.068691-26.257182L211.367307 49.653777A29.32855 29.32855 0 0 1 238.377275 18.217426L427.386832 1.716353l25.203282 288.317111z" p-id="5875"></path></svg>