<?xml version="1.0" standalone="no"?><!DOCTYPE svg PUBLIC "-//W3C//DTD SVG 1.1//EN" "http://www.w3.org/Graphics/SVG/1.1/DTD/svg11.dtd"><svg t="1552377065528" class="icon" style="" viewBox="0 0 1024 1024" version="1.1" xmlns="http://www.w3.org/2000/svg" p-id="2664" xmlns:xlink="http://www.w3.org/1999/xlink" width="200" height="200"><defs><style type="text/css"></style></defs><path d="M84.992 0L1.024 70.656a3351.405714 3351.405714 0 0 1 411.062857 367.616C224.987429 627.126857 77.970286 813.056 0.731429 887.808l159.744 133.558857c56.758857-117.174857 180.224-294.912 345.526857-481.28C671.158857 727.478857 795.209143 906.386286 851.968 1024c0 0 155.648-165.302857 169.545143-139.702857-59.977143-67.730286-206.262857-264.192-403.017143-465.481143A3201.170286 3201.170286 0 0 1 992.841143 87.625143l-36.864-68.754286C802.816 95.232 656.822857 208.457143 525.897143 328.850286 393.801143 203.337143 244.297143 83.968 84.845714 0z" fill="#FF0000" p-id="2665"></path></svg>