<?xml version="1.0" standalone="no"?><!DOCTYPE svg PUBLIC "-//W3C//DTD SVG 1.1//EN" "http://www.w3.org/Graphics/SVG/1.1/DTD/svg11.dtd"><svg t="1552987943570" class="icon" style="" viewBox="0 0 1024 1024" version="1.1" xmlns="http://www.w3.org/2000/svg" p-id="4947" xmlns:xlink="http://www.w3.org/1999/xlink" width="200" height="200"><defs><style type="text/css"></style></defs><path d="M724.992 426.456615a36.391385 36.391385 0 0 0 36.076308-36.312615v-48.679385a36.470154 36.470154 0 0 0-36.076308-36.548923h-24.812308c-19.849846 0-40.408615-13.390769-45.449846-29.61723-5.12-16.147692-13.942154-66.717538 0-81.053539l17.723077-17.723077a36.864 36.864 0 0 0 0-51.672615l-33.949538-34.422154a35.603692 35.603692 0 0 0-50.963693 0l-17.644307 17.959385c-13.942154 14.099692-37.572923 19.298462-52.381539 11.736615-14.651077-7.798154-56.871385-37.651692-56.871384-57.737846V37.257846A36.470154 36.470154 0 0 0 424.566154 0.787692h-48.049231a36.470154 36.470154 0 0 0-36.155077 36.470154v25.206154c0 20.007385-12.996923 40.802462-29.144615 45.922462-16.068923 5.198769-66.166154 14.099692-80.029539 0l-17.723077-17.959385a35.84 35.84 0 0 0-51.12123 0l-33.792 34.422154a36.627692 36.627692 0 0 0 0 51.515077l17.565538 17.880615c14.178462 14.336 19.298462 37.966769 11.579077 53.011692-7.640615 14.808615-37.179077 57.659077-56.950154 57.659077L75.854769 304.836923a36.470154 36.470154 0 0 0-36.076307 36.548923v48.679385c0 20.007385 16.226462 36.470154 36.076307 36.470154H100.824615c19.771077 0 40.329846 13.233231 45.528616 29.538461 5.198769 16.226462 13.942154 66.875077-0.157539 80.974769l-17.723077 17.880616a36.627692 36.627692 0 0 0 0 51.593846l33.949539 34.500923c14.178462 14.178462 37.021538 14.178462 50.963692 0l17.880616-17.880615c13.942154-14.178462 37.494154-19.534769 52.14523-11.815385 14.887385 7.876923 56.871385 37.494154 56.871385 57.737846v25.206154c0 20.007385 16.226462 36.470154 36.076308 36.470154h48.04923a36.470154 36.470154 0 0 0 36.155077-36.548923v-25.127385c0-20.086154 13.233231-40.881231 29.302154-46.08 15.911385-5.12 65.929846-13.942154 80.108308 0.157539l17.644308 17.880615c13.942154 14.178462 37.021538 14.178462 50.963692 0l33.949538-34.343385a36.864 36.864 0 0 0 0-51.751384l-17.723077-17.880616c-13.942154-14.099692-19.062154-37.966769-11.421538-52.775384 7.719385-14.966154 37.021538-57.737846 56.871385-57.737846h24.812307zM400.462769 523.815385a157.223385 157.223385 0 0 1-156.435692-158.011077c0-87.433846 70.104615-158.326154 156.435692-158.326154s156.356923 70.892308 156.356923 158.326154c0 87.355077-70.104615 158.011077-156.356923 158.011077z m559.025231 346.742153c9.846154 0 18.116923-8.113231 18.116923-18.274461v-24.260923a18.195692 18.195692 0 0 0-18.116923-18.274462h-12.366769c-10.003692 0-20.164923-6.695385-22.843077-14.808615-2.520615-7.876923-7.010462-33.240615 0.157538-40.487385l8.743385-8.900923a18.589538 18.589538 0 0 0 0-25.836307l-16.935385-17.171693a17.880615 17.880615 0 0 0-25.363692 0l-8.979692 9.058462c-6.931692 7.089231-18.747077 9.531077-26.072616 5.750154-7.325538-3.938462-28.593231-18.825846-28.59323-28.75077v-12.603077a18.116923 18.116923 0 0 0-18.116924-18.274461H785.329231a18.195692 18.195692 0 0 0-18.116923 18.195692v12.681846c0 9.924923-6.537846 20.243692-14.41477 23.000616-8.034462 2.520615-33.083077 7.089231-40.172307 0l-8.822154-9.058462a17.723077 17.723077 0 0 0-25.521231 0l-17.014154 17.171693a18.589538 18.589538 0 0 0 0 25.836307l8.900923 8.900923c7.010462 7.246769 9.452308 18.904615 5.750154 26.545231-3.938462 7.404308-18.589538 28.750769-28.356923 28.750769h-12.603077a18.116923 18.116923 0 0 0-18.038154 18.274462v24.260923a18.116923 18.116923 0 0 0 18.116923 18.274461h12.445539c9.846154 0 20.007385 6.695385 22.685538 14.808616 2.520615 7.955692 7.010462 33.319385 0 40.487384l-8.900923 8.900924a18.589538 18.589538 0 0 0 0 25.836307l17.014154 17.171693c7.089231 7.089231 18.589538 7.089231 25.521231 0l8.743385-8.822154c7.168-7.246769 18.747077-9.767385 26.308923-5.986462 7.325538 3.938462 28.199385 18.825846 28.199384 28.750769v12.603077c0 10.24 8.270769 18.353231 18.116923 18.353231h24.103385a18.116923 18.116923 0 0 0 18.038154-18.274461v-12.603077c0-10.003692 6.616615-20.322462 14.651077-23.000616 8.034462-2.599385 33.083077-7.089231 40.014769 0.157539l8.979692 8.822154c6.931692 7.089231 18.353231 7.089231 25.363693 0l16.935384-17.171693a18.589538 18.589538 0 0 0 0-25.836307l-8.664615-8.900924c-7.246769-7.168-9.688615-18.904615-5.986462-26.387692 3.938462-7.561846 18.589538-28.908308 28.435693-28.908308h12.524307z m-102.084923-30.404923a60.416 60.416 0 0 1-60.022154 60.809847 60.337231 60.337231 0 0 1-60.258461-60.809847c0-33.634462 26.781538-60.731077 60.258461-60.731077 33.083077 0 60.022154 27.096615 60.022154 60.731077z" p-id="4948"></path></svg>