<?xml version="1.0" standalone="no"?><!DOCTYPE svg PUBLIC "-//W3C//DTD SVG 1.1//EN" "http://www.w3.org/Graphics/SVG/1.1/DTD/svg11.dtd"><svg t="1580644110140" class="icon" viewBox="0 0 1024 1024" version="1.1" xmlns="http://www.w3.org/2000/svg" p-id="2589" xmlns:xlink="http://www.w3.org/1999/xlink" width="200" height="200"><defs><style type="text/css"></style></defs><path d="M892.793856 397.1584l-241.661952-59.259904c-5.940224-1.458176-11.880448-1.618944-17.590272-0.872448L633.541632 143.88224c13.001728-10.51136 20.329472-27.29984 17.590272-44.9792-4.124672-26.428416-28.936192-44.532736-55.312384-40.425472l-459.867136 71.56736c-26.446848 4.12672-44.517376 28.882944-40.426496 55.294976 1.95584 12.448768 8.501248 22.941696 17.60768 30.2336L113.133568 938.53696c0 16.681984 13.5168 30.253056 30.252032 30.253056L603.2896 968.790016l272.5376 0c16.700416 0 30.252032-13.571072 30.252032-30.252032L906.079232 485.62176c10.688512-6.403072 19.012608-16.82432 22.212608-29.89568C934.663168 429.722624 918.762496 403.524608 892.793856 397.1584zM173.656064 222.206976l399.364096-62.14144 0 241.59232 0 506.60864L420.354048 908.266496 420.354048 756.719616l-94.01344 0 0 151.54688L173.656064 908.266496 173.656064 222.206976zM845.5424 908.266496l-78.132224 0 0-77.472768-55.739392 0 0 77.472768-78.130176 0L633.540608 439.486464l211.999744 47.699968L845.5424 908.266496 845.5424 908.266496z" p-id="2590"></path><path d="M326.341632 246.839296l94.012416 0 0 91.645952-94.012416 0 0-91.645952Z" p-id="2591"></path><path d="M326.341632 412.524544l94.012416 0 0 91.6992-94.012416 0 0-91.6992Z" p-id="2592"></path><path d="M326.341632 578.245632l94.012416 0 0 91.646976-94.012416 0 0-91.646976Z" p-id="2593"></path><path d="M711.671808 521.458688l55.739392 0 0 54.315008-55.739392 0 0-54.315008Z" p-id="2594"></path><path d="M711.671808 619.651072l55.739392 0 0 54.316032-55.739392 0 0-54.316032Z" p-id="2595"></path><path d="M711.671808 717.841408l55.739392 0 0 54.2976-55.739392 0 0-54.2976Z" p-id="2596"></path></svg>