<?xml version="1.0" standalone="no"?><!DOCTYPE svg PUBLIC "-//W3C//DTD SVG 1.1//EN" "http://www.w3.org/Graphics/SVG/1.1/DTD/svg11.dtd"><svg t="1580894961290" class="icon" viewBox="0 0 1024 1024" version="1.1" xmlns="http://www.w3.org/2000/svg" p-id="2012" xmlns:xlink="http://www.w3.org/1999/xlink" width="200" height="200"><defs><style type="text/css"></style></defs><path d="M496.488 543.982c-4.412 0-8.074-3.56-8.074-7.994 0-4.404 3.498-7.996 7.916-7.996h0.156a8.002 8.002 0 0 1 7.996 7.996 7.98 7.98 0 0 1-7.994 7.994zM216.2 352.104a7.984 7.984 0 0 1-6.05-2.764 8.006 8.006 0 0 1 0.82-11.282l295.8-255.828a8.006 8.006 0 0 1 11.282 0.82 8.006 8.006 0 0 1-0.82 11.282l-295.8 255.828a8.004 8.004 0 0 1-5.232 1.944z" p-id="2013"></path><path d="M807.8 352.104c-1.858 0-3.714-0.64-5.23-1.944l-295.8-255.828a8.004 8.004 0 0 1-0.82-11.282 8.01 8.01 0 0 1 11.282-0.82l295.8 255.828a8.01 8.01 0 0 1 0.828 11.282 8.006 8.006 0 0 1-6.06 2.764zM216.2 384.082a7.984 7.984 0 0 1-6.05-2.764 8.006 8.006 0 0 1 0.82-11.282l295.8-255.828a8.014 8.014 0 0 1 11.282 0.82 8.006 8.006 0 0 1-0.82 11.282l-295.8 255.828a7.994 7.994 0 0 1-5.232 1.944z" p-id="2014"></path><path d="M807.8 384.082c-1.858 0-3.714-0.64-5.23-1.944l-295.8-255.828a8.004 8.004 0 0 1-0.82-11.282 8.018 8.018 0 0 1 11.282-0.82l295.8 255.828a8.01 8.01 0 0 1 0.828 11.282 8.006 8.006 0 0 1-6.06 2.764zM216.2 384.082a7.99 7.99 0 0 1-7.996-7.996v-31.978a7.992 7.992 0 0 1 7.996-7.996 7.99 7.99 0 0 1 7.994 7.996v31.978a7.99 7.99 0 0 1-7.994 7.996z" p-id="2015"></path><path d="M807.8 384.082a7.99 7.99 0 0 1-7.994-7.996v-31.978a7.992 7.992 0 0 1 7.994-7.996 7.99 7.99 0 0 1 7.996 7.996v31.978a7.99 7.99 0 0 1-7.996 7.996zM280.156 559.97a7.98 7.98 0 0 1-7.996-7.994v-199.25a7.992 7.992 0 0 1 7.996-7.996 7.99 7.99 0 0 1 7.994 7.996v199.25a7.98 7.98 0 0 1-7.994 7.994zM743.844 559.97a7.98 7.98 0 0 1-7.994-7.994v-199.25a7.992 7.992 0 0 1 7.994-7.996 7.99 7.99 0 0 1 7.996 7.996v199.25a7.98 7.98 0 0 1-7.996 7.994zM440.048 591.95h-175.882a7.98 7.98 0 0 1-7.994-7.994 8 8 0 0 1 7.994-7.994h175.882a8 8 0 0 1 7.994 7.994 7.98 7.98 0 0 1-7.994 7.994zM759.834 591.95h-175.882a7.98 7.98 0 0 1-7.994-7.994 8 8 0 0 1 7.994-7.994h175.882a8 8 0 0 1 7.994 7.994 7.98 7.98 0 0 1-7.994 7.994zM472.028 591.95a7.98 7.98 0 0 1-7.996-7.994v-127.906a7.99 7.99 0 0 1 7.996-7.994 7.99 7.99 0 0 1 7.994 7.994v127.906a7.98 7.98 0 0 1-7.994 7.994z" p-id="2016"></path><path d="M551.972 464.042h-79.946c-4.42 0-7.996-3.576-7.996-7.994s3.576-7.994 7.996-7.994h79.946c4.42 0 7.996 3.576 7.996 7.994s-3.576 7.994-7.996 7.994z" p-id="2017"></path><path d="M551.972 591.95a7.98 7.98 0 0 1-7.994-7.994v-127.906a7.99 7.99 0 0 1 7.994-7.994 7.99 7.99 0 0 1 7.996 7.994v127.906a7.98 7.98 0 0 1-7.996 7.994zM264.166 591.95a7.98 7.98 0 0 1-7.994-7.994v-31.978a8 8 0 0 1 7.994-7.994 8 8 0 0 1 7.996 7.994v31.978a7.98 7.98 0 0 1-7.996 7.994z" p-id="2018"></path><path d="M296.144 559.97h-31.978a7.98 7.98 0 0 1-7.994-7.994 8 8 0 0 1 7.994-7.994h31.978a8 8 0 0 1 7.996 7.994 7.98 7.98 0 0 1-7.996 7.994zM759.834 591.95a7.978 7.978 0 0 1-7.994-7.994v-31.978a8 8 0 0 1 7.994-7.994 8 8 0 0 1 7.994 7.994v31.978a7.98 7.98 0 0 1-7.994 7.994z" p-id="2019"></path><path d="M759.834 559.97h-31.978a7.98 7.98 0 0 1-7.996-7.994 8.002 8.002 0 0 1 7.996-7.994h31.978a8 8 0 0 1 7.994 7.994 7.98 7.98 0 0 1-7.994 7.994zM567.962 623.928h-111.926a7.98 7.98 0 0 1-7.994-7.994 8 8 0 0 1 7.994-7.994h111.926a8 8 0 0 1 7.994 7.994 7.98 7.98 0 0 1-7.994 7.994zM695.876 480.034H599.94a7.99 7.99 0 0 1-7.996-7.996v-95.936a7.992 7.992 0 0 1 7.996-7.996h95.936a7.99 7.99 0 0 1 7.994 7.996v95.936a7.99 7.99 0 0 1-7.994 7.996z m-87.94-15.992h79.948v-79.946h-79.948v79.946zM424.058 480.034h-95.936a7.99 7.99 0 0 1-7.994-7.996v-95.936a7.992 7.992 0 0 1 7.994-7.996h95.936a7.99 7.99 0 0 1 7.996 7.996v95.936a7.99 7.99 0 0 1-7.996 7.996z m-87.94-15.992h79.946v-79.946h-79.946v79.946z" p-id="2020"></path><path d="M376.092 464.042a7.99 7.99 0 0 1-7.996-7.994v-63.958a7.99 7.99 0 0 1 7.996-7.994 7.99 7.99 0 0 1 7.994 7.994v63.958a7.988 7.988 0 0 1-7.994 7.994zM647.908 464.042a7.99 7.99 0 0 1-7.994-7.994v-63.958a7.99 7.99 0 0 1 7.994-7.994 7.988 7.988 0 0 1 7.994 7.994v63.958a7.988 7.988 0 0 1-7.994 7.994z" p-id="2021"></path><path d="M679.886 432.064h-63.958c-4.418 0-7.994-3.576-7.994-7.994s3.576-7.994 7.994-7.994h63.958c4.42 0 7.996 3.576 7.996 7.994s-3.576 7.994-7.996 7.994zM408.07 432.064h-63.958c-4.42 0-7.996-3.576-7.996-7.994s3.576-7.994 7.996-7.994h63.958c4.418 0 7.994 3.576 7.994 7.994s-3.576 7.994-7.994 7.994zM512 352.12c-26.452 0-47.968-21.518-47.968-47.968s21.516-47.966 47.968-47.966 47.968 21.516 47.968 47.966S538.452 352.12 512 352.12z m0-79.948c-17.636 0-31.978 14.342-31.978 31.978s14.342 31.978 31.978 31.978c17.644 0 31.978-14.342 31.978-31.978s-14.334-31.978-31.978-31.978z" p-id="2022"></path><path d="M512 336.128a7.99 7.99 0 0 1-7.994-7.994v-47.968a7.992 7.992 0 0 1 7.994-7.996 7.99 7.99 0 0 1 7.994 7.996v47.968a7.988 7.988 0 0 1-7.994 7.994z" p-id="2023"></path><path d="M535.984 312.146h-47.968a7.99 7.99 0 0 1-7.994-7.996 7.99 7.99 0 0 1 7.994-7.994h47.968a7.99 7.99 0 0 1 7.994 7.994 7.99 7.99 0 0 1-7.994 7.996zM40.316 591.95a7.98 7.98 0 0 1-7.994-7.994v-15.99a8 8 0 0 1 7.994-7.994 8 8 0 0 1 7.996 7.994v15.99a7.98 7.98 0 0 1-7.996 7.994zM72.294 591.95a7.98 7.98 0 0 1-7.994-7.994v-15.99a8 8 0 0 1 7.994-7.994 8 8 0 0 1 7.996 7.994v15.99a7.98 7.98 0 0 1-7.996 7.994zM104.274 591.95a7.98 7.98 0 0 1-7.994-7.994v-15.99a8 8 0 0 1 7.994-7.994 8 8 0 0 1 7.996 7.994v15.99a7.98 7.98 0 0 1-7.996 7.994zM136.252 591.95a7.98 7.98 0 0 1-7.994-7.994v-15.99a8 8 0 0 1 7.994-7.994 8 8 0 0 1 7.996 7.994v15.99a7.98 7.98 0 0 1-7.996 7.994zM168.23 591.95a7.98 7.98 0 0 1-7.994-7.994v-15.99a8 8 0 0 1 7.994-7.994 8 8 0 0 1 7.996 7.994v15.99a7.98 7.98 0 0 1-7.996 7.994zM200.208 591.95a7.98 7.98 0 0 1-7.994-7.994v-15.99a8 8 0 0 1 7.994-7.994 8 8 0 0 1 7.996 7.994v15.99a7.98 7.98 0 0 1-7.996 7.994zM232.188 591.95a7.98 7.98 0 0 1-7.994-7.994v-15.99a8 8 0 0 1 7.994-7.994 8 8 0 0 1 7.996 7.994v15.99a7.98 7.98 0 0 1-7.996 7.994zM232.188 551.976a7.98 7.98 0 0 1-7.994-7.994c0-6.73-4.326-12.774-10.766-15.006a7.978 7.978 0 0 1-5.356-7.806l8.058-0.406-7.902-1.25c-0.024-21.546-17.956-39.48-39.998-39.48-9.728 0-19.182 3.692-26.63 10.39a8.004 8.004 0 0 1-10.696 0c-7.448-6.698-16.902-10.39-26.63-10.39-22.04 0-39.972 17.934-39.972 39.972 0.11 3.498-1.92 7.822-5.222 8.97-6.442 2.232-10.766 8.276-10.766 15.006a7.98 7.98 0 0 1-7.996 7.994 7.98 7.98 0 0 1-7.994-7.994c0-11.524 6.286-22.034 16.106-27.654 1.906-29.152 26.224-52.286 55.844-52.286 11.43 0 22.564 3.592 31.978 10.228 9.416-6.636 20.548-10.228 31.978-10.228 29.622 0 53.942 23.132 55.846 52.286 9.822 5.622 16.106 16.13 16.106 27.654a7.98 7.98 0 0 1-7.994 7.994zM791.812 591.95a7.98 7.98 0 0 1-7.994-7.994v-15.99a8 8 0 0 1 7.994-7.994 8 8 0 0 1 7.994 7.994v15.99a7.98 7.98 0 0 1-7.994 7.994zM823.792 591.95a7.978 7.978 0 0 1-7.994-7.994v-15.99a8 8 0 0 1 7.994-7.994 8 8 0 0 1 7.994 7.994v15.99a7.98 7.98 0 0 1-7.994 7.994zM855.77 591.95a7.98 7.98 0 0 1-7.994-7.994v-15.99a8 8 0 0 1 7.994-7.994 8 8 0 0 1 7.994 7.994v15.99a7.98 7.98 0 0 1-7.994 7.994zM887.748 591.95a7.978 7.978 0 0 1-7.994-7.994v-15.99a8 8 0 0 1 7.994-7.994 8 8 0 0 1 7.994 7.994v15.99a7.98 7.98 0 0 1-7.994 7.994zM919.726 591.95a7.98 7.98 0 0 1-7.994-7.994v-15.99a8 8 0 0 1 7.994-7.994 8 8 0 0 1 7.994 7.994v15.99a7.98 7.98 0 0 1-7.994 7.994zM951.706 591.95a7.978 7.978 0 0 1-7.994-7.994v-15.99a8 8 0 0 1 7.994-7.994 8 8 0 0 1 7.994 7.994v15.99a7.98 7.98 0 0 1-7.994 7.994zM983.684 591.95a7.98 7.98 0 0 1-7.994-7.994v-15.99a8 8 0 0 1 7.994-7.994 8 8 0 0 1 7.994 7.994v15.99a7.98 7.98 0 0 1-7.994 7.994zM983.684 551.976a7.98 7.98 0 0 1-7.994-7.994c0-6.73-4.31-12.774-10.744-15.006a7.994 7.994 0 0 1-5.372-7.55c0-0.35 0.094-1.412 0.124-1.764 0-21.696-17.926-39.628-39.972-39.628-9.712 0-19.176 3.692-26.638 10.39a7.982 7.982 0 0 1-10.68 0c-14.958-13.466-38.694-13.264-53.278-0.196a8.02 8.02 0 0 1-11.29-0.608 7.998 7.998 0 0 1 0.61-11.29c18.798-16.834 48.56-18.698 69.296-4.06 9.432-6.636 20.548-10.228 31.978-10.228 29.622 0 53.932 23.132 55.838 52.278 9.836 5.614 16.114 16.124 16.114 27.662a7.976 7.976 0 0 1-7.992 7.994zM344.114 241.474a7.99 7.99 0 0 1-7.996-7.996V168.242a7.99 7.99 0 0 1 7.996-7.994 7.99 7.99 0 0 1 7.994 7.994v65.238a7.99 7.99 0 0 1-7.994 7.994zM312.134 269.126a7.99 7.99 0 0 1-7.996-7.994V168.242a7.99 7.99 0 0 1 7.996-7.994 7.99 7.99 0 0 1 7.994 7.994v92.89a7.988 7.988 0 0 1-7.994 7.994z" p-id="2024"></path><path d="M352.108 176.236H304.14c-4.418 0-7.996-3.576-7.996-7.994s3.576-7.994 7.996-7.994h47.968c4.418 0 7.994 3.576 7.994 7.994s-3.576 7.994-7.994 7.994zM775.824 512.012a7.99 7.99 0 0 1-7.996-7.996v-111.924a7.99 7.99 0 0 1 7.996-7.994 7.99 7.99 0 0 1 7.994 7.994v111.924a7.99 7.99 0 0 1-7.994 7.996zM791.812 543.982h-15.988a7.98 7.98 0 0 1-7.996-7.994 8 8 0 0 1 7.996-7.996h15.988a8 8 0 0 1 7.994 7.996 7.98 7.98 0 0 1-7.994 7.994z" p-id="2025"></path><path d="M791.812 543.982a7.98 7.98 0 0 1-7.994-7.994v-31.972c0-4.418 3.576-7.996 7.994-7.996s7.994 3.576 7.994 7.996v31.972a7.98 7.98 0 0 1-7.994 7.994z" p-id="2026"></path><path d="M791.812 512.012h-15.988c-4.42 0-7.996-3.576-7.996-7.996s3.576-7.996 7.996-7.996h15.988c4.418 0 7.994 3.576 7.994 7.996s-3.576 7.996-7.994 7.996zM104.274 719.864a7.968 7.968 0 0 1-5.652-2.342l-15.988-15.988a7.992 7.992 0 0 1 0-11.306 7.992 7.992 0 0 1 11.304 0l15.988 15.99a7.988 7.988 0 0 1 0 11.304 7.96 7.96 0 0 1-5.652 2.342z" p-id="2027"></path><path d="M104.274 719.864a7.968 7.968 0 0 1-5.652-2.342 7.988 7.988 0 0 1 0-11.304l15.99-15.99a7.992 7.992 0 0 1 11.304 0 7.992 7.992 0 0 1 0 11.306l-15.99 15.988a7.96 7.96 0 0 1-5.652 2.342zM280.156 671.896a7.97 7.97 0 0 1-5.652-2.342l-15.99-15.99c-3.124-3.124-3.124-8.182 0-11.304s8.182-3.124 11.304 0l15.99 15.99a7.988 7.988 0 0 1 0 11.304 7.966 7.966 0 0 1-5.652 2.342z" p-id="2028"></path><path d="M280.156 671.896a7.97 7.97 0 0 1-5.652-2.342 7.988 7.988 0 0 1 0-11.304l15.988-15.99a7.988 7.988 0 0 1 11.304 0 7.988 7.988 0 0 1 0 11.304l-15.988 15.99a7.966 7.966 0 0 1-5.652 2.342zM919.726 719.864a7.96 7.96 0 0 1-5.652-2.342 7.988 7.988 0 0 1 0-11.304l15.988-15.99a7.992 7.992 0 0 1 11.304 0 7.992 7.992 0 0 1 0 11.306l-15.988 15.988a7.966 7.966 0 0 1-5.652 2.342z" p-id="2029"></path><path d="M919.726 719.864a7.96 7.96 0 0 1-5.652-2.342l-15.99-15.988a7.994 7.994 0 0 1 11.306-11.306l15.988 15.99a7.988 7.988 0 0 1 0 11.304 7.966 7.966 0 0 1-5.652 2.342zM743.844 671.896a7.992 7.992 0 0 1-5.652-13.646l15.99-15.99c3.124-3.124 8.182-3.124 11.304 0s3.124 8.182 0 11.304l-15.99 15.99a7.96 7.96 0 0 1-5.652 2.342z" p-id="2030"></path><path d="M743.844 671.896a7.978 7.978 0 0 1-5.652-2.342l-15.988-15.99c-3.124-3.124-3.124-8.182 0-11.304s8.182-3.124 11.304 0l15.988 15.99a7.988 7.988 0 0 1 0 11.304 7.96 7.96 0 0 1-5.652 2.342zM40.316 943.714a7.98 7.98 0 0 1-7.994-7.996v-156.582l-7.994-7.994-7.996 7.994v156.582a7.98 7.98 0 0 1-7.996 7.996 7.98 7.98 0 0 1-7.994-7.996v-159.892c0-2.124 0.844-4.154 2.342-5.652l15.99-15.99a7.992 7.992 0 0 1 11.304 0l15.988 15.99a7.984 7.984 0 0 1 2.342 5.652v159.892a7.974 7.974 0 0 1-7.992 7.996zM104.274 943.714a7.98 7.98 0 0 1-7.994-7.996v-156.582l-7.994-7.994-7.996 7.994v156.582a7.98 7.98 0 0 1-7.996 7.996 7.98 7.98 0 0 1-7.994-7.996v-159.892c0-2.124 0.844-4.154 2.342-5.652l15.99-15.99a7.992 7.992 0 0 1 11.304 0l15.988 15.99a7.984 7.984 0 0 1 2.342 5.652v159.892a7.976 7.976 0 0 1-7.992 7.996z" p-id="2031"></path><path d="M168.23 943.714a7.98 7.98 0 0 1-7.994-7.996v-156.582l-7.994-7.994-7.996 7.994v156.582a7.98 7.98 0 0 1-7.996 7.996 7.98 7.98 0 0 1-7.994-7.996v-159.892c0-2.124 0.844-4.154 2.342-5.652l15.99-15.99a7.992 7.992 0 0 1 11.304 0l15.988 15.99a7.984 7.984 0 0 1 2.342 5.652v159.892a7.974 7.974 0 0 1-7.992 7.996z" p-id="2032"></path><path d="M232.188 943.714a7.98 7.98 0 0 1-7.994-7.996v-156.582l-7.994-7.994-7.996 7.994v156.582a7.98 7.98 0 0 1-7.996 7.996 7.98 7.98 0 0 1-7.994-7.996v-159.892c0-2.124 0.844-4.154 2.342-5.652l15.99-15.99a7.992 7.992 0 0 1 11.304 0l15.988 15.99a7.984 7.984 0 0 1 2.342 5.652v159.892a7.976 7.976 0 0 1-7.992 7.996z" p-id="2033"></path><path d="M296.144 943.714a7.98 7.98 0 0 1-7.994-7.996v-156.582l-7.994-7.994-7.996 7.994v156.582a7.98 7.98 0 0 1-7.996 7.996 7.98 7.98 0 0 1-7.994-7.996v-159.892c0-2.124 0.844-4.154 2.342-5.652l15.99-15.99a7.992 7.992 0 0 1 11.304 0l15.988 15.99a7.984 7.984 0 0 1 2.342 5.652v159.892a7.974 7.974 0 0 1-7.992 7.996z" p-id="2034"></path><path d="M360.102 943.714a7.98 7.98 0 0 1-7.994-7.996v-156.582l-7.994-7.994-7.996 7.994v156.582a7.98 7.98 0 0 1-7.996 7.996 7.98 7.98 0 0 1-7.994-7.996v-159.892c0-2.124 0.844-4.154 2.342-5.652l15.99-15.99a7.992 7.992 0 0 1 11.304 0l15.988 15.99a7.984 7.984 0 0 1 2.342 5.652v159.892a7.976 7.976 0 0 1-7.992 7.996z" p-id="2035"></path><path d="M695.876 943.714a7.98 7.98 0 0 1-7.994-7.996v-156.582l-7.996-7.994-7.994 7.994v156.582a7.98 7.98 0 0 1-7.994 7.996 7.98 7.98 0 0 1-7.996-7.996v-159.892c0-2.124 0.844-4.154 2.344-5.652l15.988-15.99a7.992 7.992 0 0 1 11.304 0l15.99 15.99a7.992 7.992 0 0 1 2.342 5.652v159.892a7.98 7.98 0 0 1-7.994 7.996z" p-id="2036"></path><path d="M759.834 943.714a7.98 7.98 0 0 1-7.994-7.996v-156.582l-7.996-7.994-7.994 7.994v156.582c0 4.436-3.576 7.996-7.994 7.996s-7.996-3.56-7.996-7.996v-159.892c0-2.124 0.844-4.154 2.344-5.652l15.988-15.99a7.992 7.992 0 0 1 11.304 0l15.99 15.99a7.992 7.992 0 0 1 2.342 5.652v159.892a7.98 7.98 0 0 1-7.994 7.996z" p-id="2037"></path><path d="M823.792 943.714a7.98 7.98 0 0 1-7.994-7.996v-156.582l-7.996-7.994-7.994 7.994v156.582c0 4.436-3.576 7.996-7.994 7.996s-7.994-3.56-7.994-7.996v-159.892a7.98 7.98 0 0 1 2.342-5.652l15.988-15.99a7.992 7.992 0 0 1 11.304 0l15.99 15.99a7.992 7.992 0 0 1 2.342 5.652v159.892a7.98 7.98 0 0 1-7.994 7.996z" p-id="2038"></path><path d="M887.748 943.714a7.98 7.98 0 0 1-7.994-7.996v-156.582l-7.996-7.994-7.994 7.994v156.582c0 4.436-3.576 7.996-7.994 7.996s-7.994-3.56-7.994-7.996v-159.892a7.98 7.98 0 0 1 2.342-5.652l15.988-15.99a7.992 7.992 0 0 1 11.304 0l15.99 15.99a7.992 7.992 0 0 1 2.342 5.652v159.892a7.98 7.98 0 0 1-7.994 7.996z" p-id="2039"></path><path d="M951.706 943.714a7.98 7.98 0 0 1-7.994-7.996v-156.582l-7.996-7.994-7.994 7.994v156.582c0 4.436-3.576 7.996-7.994 7.996s-7.994-3.56-7.994-7.996v-159.892a7.98 7.98 0 0 1 2.342-5.652l15.988-15.99a7.992 7.992 0 0 1 11.304 0l15.99 15.99a7.992 7.992 0 0 1 2.342 5.652v159.892a7.98 7.98 0 0 1-7.994 7.996z" p-id="2040"></path><path d="M1015.662 943.714a7.98 7.98 0 0 1-7.994-7.996v-156.582l-7.996-7.994-7.994 7.994v156.582c0 4.436-3.576 7.996-7.994 7.996s-7.994-3.56-7.994-7.996v-159.892a7.98 7.98 0 0 1 2.342-5.652l15.988-15.99a7.992 7.992 0 0 1 11.304 0l15.99 15.99a7.992 7.992 0 0 1 2.342 5.652v159.892a7.98 7.98 0 0 1-7.994 7.996z" p-id="2041"></path><path d="M392.08 943.184a8 8 0 0 1-7.994-7.996v-112.986c0-31.572 12.172-61.38 34.266-83.928 3.084-3.17 8.136-3.202 11.304-0.11a7.99 7.99 0 0 1 0.11 11.304c-19.142 19.55-29.69 45.376-29.69 72.732v112.986a8 8 0 0 1-7.996 7.998zM456.044 729.044a8 8 0 0 1-3.442-15.224 117.634 117.634 0 0 1 34.314-10.32 7.952 7.952 0 0 1 9.032 6.792 8.006 8.006 0 0 1-6.8 9.04 101.5 101.5 0 0 0-29.676 8.934 7.954 7.954 0 0 1-3.428 0.778zM552.098 729.076a8.156 8.156 0 0 1-3.434-0.764 102.85 102.85 0 0 0-29.8-8.98 8.012 8.012 0 0 1-6.786-9.054c0.624-4.374 4.676-7.356 9.048-6.778 11.954 1.718 23.54 5.2 34.406 10.368a7.978 7.978 0 0 1 3.78 10.65 7.972 7.972 0 0 1-7.214 4.558zM615.93 943.184a8 8 0 0 1-7.994-7.996v-112.986c0-27.374-10.54-53.212-29.684-72.764a8.006 8.006 0 0 1 0.124-11.304 8.02 8.02 0 0 1 11.304 0.124c22.08 22.546 34.244 52.372 34.244 83.944v112.986a8 8 0 0 1-7.994 7.996z" p-id="2042"></path><path d="M424.058 943.714a7.98 7.98 0 0 1-7.994-7.996v-191.84a7.98 7.98 0 0 1 7.994-7.994 7.98 7.98 0 0 1 7.996 7.994v191.84a7.98 7.98 0 0 1-7.996 7.996zM392.08 943.714a7.98 7.98 0 0 1-7.994-7.996v-120.98a8 8 0 0 1 7.994-7.996 8 8 0 0 1 7.996 7.996v120.98a7.98 7.98 0 0 1-7.996 7.996zM456.038 943.714a7.98 7.98 0 0 1-7.994-7.996V721.05a8 8 0 0 1 7.994-7.994 8 8 0 0 1 7.996 7.994v214.668a7.982 7.982 0 0 1-7.996 7.996zM488.016 943.714a7.98 7.98 0 0 1-7.994-7.996V711.37a7.98 7.98 0 0 1 7.994-7.994 7.98 7.98 0 0 1 7.996 7.994V935.72a7.98 7.98 0 0 1-7.996 7.994zM519.994 943.714a7.98 7.98 0 0 1-7.994-7.996V711.37a7.98 7.98 0 0 1 7.994-7.994 7.98 7.98 0 0 1 7.994 7.994V935.72a7.98 7.98 0 0 1-7.994 7.994zM551.972 943.714a7.98 7.98 0 0 1-7.994-7.996V721.05a8 8 0 0 1 7.994-7.994 8 8 0 0 1 7.996 7.994v214.668a7.98 7.98 0 0 1-7.996 7.996zM583.952 943.714a7.98 7.98 0 0 1-7.994-7.996v-191.872a8 8 0 0 1 7.994-7.994 8 8 0 0 1 7.994 7.994v191.872a7.98 7.98 0 0 1-7.994 7.996z" p-id="2043"></path><path d="M392.08 863.768h-7.994a7.98 7.98 0 0 1-7.994-7.994 8 8 0 0 1 7.994-7.996h7.994a8 8 0 0 1 7.996 7.996 7.98 7.98 0 0 1-7.996 7.994z" p-id="2044"></path><path d="M392.08 895.746h-7.994a7.98 7.98 0 0 1-7.994-7.994 8 8 0 0 1 7.994-7.994h7.994a8 8 0 0 1 7.996 7.994 7.98 7.98 0 0 1-7.996 7.994z" p-id="2045"></path><path d="M727.856 863.768h-31.978a7.98 7.98 0 0 1-7.994-7.994 8 8 0 0 1 7.994-7.996h31.978a8 8 0 0 1 7.994 7.996 7.98 7.98 0 0 1-7.994 7.994z" p-id="2046"></path><path d="M727.856 895.746h-31.978a7.98 7.98 0 0 1-7.994-7.994 7.998 7.998 0 0 1 7.994-7.994h31.978a8 8 0 0 1 7.994 7.994 7.98 7.98 0 0 1-7.994 7.994z" p-id="2047"></path><path d="M328.124 863.768h-31.978a7.98 7.98 0 0 1-7.994-7.994 8 8 0 0 1 7.994-7.996h31.978a8 8 0 0 1 7.996 7.996 7.982 7.982 0 0 1-7.996 7.994z" p-id="2048"></path><path d="M328.124 895.746h-31.978a7.98 7.98 0 0 1-7.994-7.994 8 8 0 0 1 7.994-7.994h31.978a8 8 0 0 1 7.996 7.994 7.982 7.982 0 0 1-7.996 7.994z" p-id="2049"></path><path d="M264.166 863.768h-31.978a7.98 7.98 0 0 1-7.994-7.994 8 8 0 0 1 7.994-7.996h31.978a8 8 0 0 1 7.996 7.996 7.98 7.98 0 0 1-7.996 7.994z" p-id="2050"></path><path d="M264.166 895.746h-31.978a7.98 7.98 0 0 1-7.994-7.994 8 8 0 0 1 7.994-7.994h31.978a8 8 0 0 1 7.996 7.994 7.98 7.98 0 0 1-7.996 7.994z" p-id="2051"></path><path d="M200.208 863.768H168.23a7.98 7.98 0 0 1-7.994-7.994 8 8 0 0 1 7.994-7.996h31.978a8 8 0 0 1 7.996 7.996 7.98 7.98 0 0 1-7.996 7.994z" p-id="2052"></path><path d="M200.208 895.746H168.23a7.98 7.98 0 0 1-7.994-7.994 8 8 0 0 1 7.994-7.994h31.978a8 8 0 0 1 7.996 7.994 7.98 7.98 0 0 1-7.996 7.994z" p-id="2053"></path><path d="M136.252 863.768H104.274a7.98 7.98 0 0 1-7.994-7.994 8 8 0 0 1 7.994-7.996h31.978a8 8 0 0 1 7.996 7.996 7.98 7.98 0 0 1-7.996 7.994z" p-id="2054"></path><path d="M136.252 895.746H104.274a7.98 7.98 0 0 1-7.994-7.994 8 8 0 0 1 7.994-7.994h31.978a8 8 0 0 1 7.996 7.994 7.98 7.98 0 0 1-7.996 7.994z" p-id="2055"></path><path d="M72.294 863.768H40.316a7.98 7.98 0 0 1-7.994-7.994 8 8 0 0 1 7.994-7.996h31.978a8 8 0 0 1 7.996 7.996 7.98 7.98 0 0 1-7.996 7.994z" p-id="2056"></path><path d="M72.294 895.746H40.316a7.98 7.98 0 0 1-7.994-7.994 8 8 0 0 1 7.994-7.994h31.978a8 8 0 0 1 7.996 7.994 7.98 7.98 0 0 1-7.996 7.994z" p-id="2057"></path><path d="M791.812 863.768h-31.978a7.98 7.98 0 0 1-7.994-7.994 8 8 0 0 1 7.994-7.996h31.978a8 8 0 0 1 7.994 7.996 7.98 7.98 0 0 1-7.994 7.994z" p-id="2058"></path><path d="M791.812 895.746h-31.978a7.98 7.98 0 0 1-7.994-7.994 7.998 7.998 0 0 1 7.994-7.994h31.978a8 8 0 0 1 7.994 7.994 7.98 7.98 0 0 1-7.994 7.994z" p-id="2059"></path><path d="M855.77 863.768h-31.978a7.98 7.98 0 0 1-7.994-7.994 8 8 0 0 1 7.994-7.996h31.978a8 8 0 0 1 7.994 7.996 7.98 7.98 0 0 1-7.994 7.994z" p-id="2060"></path><path d="M855.77 895.746h-31.978a7.98 7.98 0 0 1-7.994-7.994 7.998 7.998 0 0 1 7.994-7.994h31.978a8 8 0 0 1 7.994 7.994 7.98 7.98 0 0 1-7.994 7.994z" p-id="2061"></path><path d="M919.726 863.768h-31.978a7.98 7.98 0 0 1-7.994-7.994 8 8 0 0 1 7.994-7.996h31.978a8 8 0 0 1 7.994 7.996 7.98 7.98 0 0 1-7.994 7.994z" p-id="2062"></path><path d="M919.726 895.746h-31.978a7.98 7.98 0 0 1-7.994-7.994 7.998 7.998 0 0 1 7.994-7.994h31.978a8 8 0 0 1 7.994 7.994 7.98 7.98 0 0 1-7.994 7.994z" p-id="2063"></path><path d="M983.684 863.768h-31.978a7.98 7.98 0 0 1-7.994-7.994 8 8 0 0 1 7.994-7.996h31.978a8 8 0 0 1 7.994 7.996 7.98 7.98 0 0 1-7.994 7.994z" p-id="2064"></path><path d="M983.684 895.746h-31.978a7.98 7.98 0 0 1-7.994-7.994 7.998 7.998 0 0 1 7.994-7.994h31.978a8 8 0 0 1 7.994 7.994 7.98 7.98 0 0 1-7.994 7.994z" p-id="2065"></path></svg>