<?xml version="1.0" standalone="no"?><!DOCTYPE svg PUBLIC "-//W3C//DTD SVG 1.1//EN" "http://www.w3.org/Graphics/SVG/1.1/DTD/svg11.dtd"><svg t="1568960020602" class="icon" viewBox="0 0 1024 1024" version="1.1" xmlns="http://www.w3.org/2000/svg" p-id="3084" xmlns:xlink="http://www.w3.org/1999/xlink" width="200" height="200"><defs><style type="text/css"></style></defs><path d="M906.103467 723.626667c-1.2288 3.822933-20.548267 71.338667-68.130134 140.765866-41.1648 59.869867-83.7632 120.285867-150.9376 121.309867-66.1504 1.160533-87.313067-39.458133-162.747733-39.458133s-99.1232 38.434133-161.5872 40.618666c-64.580267 2.6624-114.2784-65.399467-155.648-124.996266C122.743467 739.805867 57.685333 515.8912 144.861867 365.841067 187.733333 290.816 264.874667 243.0976 348.842667 241.800533c63.2832-1.2288 123.4944 42.871467 161.928533 42.871467 39.458133 0 112.298667-53.316267 189.166933-45.329067 32.1536 1.365333 122.197333 13.448533 180.155734 97.4848-4.573867 3.072-107.656533 63.965867-106.496 187.733334 1.501867 149.572267 131.072 198.656 132.5056 199.133866M649.6256 159.197867c34.679467-42.257067 57.480533-100.352 51.473067-158.037334-49.493333 1.911467-109.7728 32.836267-145.6128 74.888534-31.675733 36.6592-59.5968 95.6416-51.8144 152.712533 55.022933 3.2768 111.547733-28.808533 145.954133-69.563733" p-id="3085"></path></svg>