<?xml version="1.0" standalone="no"?><!DOCTYPE svg PUBLIC "-//W3C//DTD SVG 1.1//EN" "http://www.w3.org/Graphics/SVG/1.1/DTD/svg11.dtd"><svg t="1538014371864" class="icon" style="" viewBox="0 0 1024 1024" version="1.1" xmlns="http://www.w3.org/2000/svg" p-id="1582" xmlns:xlink="http://www.w3.org/1999/xlink" width="200" height="200"><defs><style type="text/css"></style></defs><path d="M709.15537 384.33051c120.879547 155.293137 109.946057 379.93879-32.80163 522.686478-154.58921 154.58921-405.226836 154.58921-559.814886 0-154.58805-154.58805-154.58805-405.225676 0-559.813726 142.763923-142.765083 367.446686-153.684657 522.742143-32.759883a50.265296 50.265296 0 0 1 2.139615-2.272978L853.688969 99.80463h0.098573-177.433802V0.844249h346.357852v346.359013h-98.959221V169.768299l-212.36693 212.465504a50.271094 50.271094 0 0 1-2.230071 2.095547z m-102.766459 452.722808c115.975248-115.948575 115.997282-303.959846 0.049866-419.935094-115.948575-115.976408-303.959846-115.998442-419.935094-0.049866-115.948575 115.948575-115.948575 303.937812 0 419.886387 115.947416 115.947416 303.936652 115.947416 419.885228 0v0.098573z" p-id="1583"></path></svg>