<?xml version="1.0" standalone="no"?><!DOCTYPE svg PUBLIC "-//W3C//DTD SVG 1.1//EN" "http://www.w3.org/Graphics/SVG/1.1/DTD/svg11.dtd"><svg t="1552530337152" class="icon" style="" viewBox="0 0 1024 1024" version="1.1" xmlns="http://www.w3.org/2000/svg" p-id="8893" xmlns:xlink="http://www.w3.org/1999/xlink" width="200" height="200"><defs><style type="text/css"></style></defs><path d="M558.158769 96.098462C593.447385 48.049231 639.606154-10.24 707.505231 1.575385c97.28 24.891077 224.492308 134.459077 146.983384 240.718769C690.806154 464.738462 521.846154 683.716923 355.643077 904.585846c-29.774769 44.268308-87.276308 46.001231-133.671385 60.652308 267.027692-12.839385 534.685538-2.835692 802.028308-5.513846-0.236308 15.990154-0.787692 48.206769-0.787692 64.275692-341.228308-0.236308-682.141538 0-1023.212308-0.236308l0.236308-64.118154 74.200615-0.236307c4.489846-75.618462-12.366769-154.860308 7.561846-228.430769C236.307692 516.489846 400.935385 308.854154 558.158769 96.098462z m3.308308 103.739076c52.460308 39.227077 104.605538 79.163077 157.380923 118.390154 33.240615-47.497846 78.139077-89.481846 97.358769-145.250461-12.603077-57.107692-77.745231-98.540308-132.174769-108.859077-57.501538 25.206154-82.707692 90.742154-122.564923 135.719384zM137.452308 760.359385c0.236308 53.799385 0.472615 107.835077 0.472615 161.634461 62.621538-22.843077 145.329231-18.904615 185.107692-79.950769 118.311385-158.089846 238.119385-315.234462 356.982154-472.772923-52.460308-39.699692-105.472-78.926769-158.168615-118.626462-127.369846 170.614154-256.787692 339.495385-384.393846 509.636923z" p-id="8894"></path></svg>