<?xml version="1.0" standalone="no"?><!DOCTYPE svg PUBLIC "-//W3C//DTD SVG 1.1//EN" "http://www.w3.org/Graphics/SVG/1.1/DTD/svg11.dtd"><svg t="1551058139991" class="icon" style="" viewBox="0 0 1024 1024" version="1.1" xmlns="http://www.w3.org/2000/svg" p-id="11069" xmlns:xlink="http://www.w3.org/1999/xlink" width="200" height="200"><defs><style type="text/css"></style></defs><path d="M880.712 473.215c0-23.625-2.44-40.635-2.44-40.635a45.597 45.597 0 0 1 20.632-42.526l51.424-29.69a28.587 28.587 0 0 0 10.474-39.06l-97.651-168.842a28.665 28.665 0 0 0-38.982-10.474l-51.424 29.61a45.99 45.99 0 0 1-47.25-3.15s-13.782-10.71-33.706-22.365c-20.082-11.497-36.856-18.349-36.856-18.349a45.99 45.99 0 0 1-26.46-39.375v-59.3c0-15.75-12.837-28.586-28.587-28.586H404.741c-15.75 0-28.508 12.915-28.508 28.586v59.378c0 15.75-11.891 33.47-26.46 39.376 0 0-16.774 6.851-36.856 18.349-20.002 11.576-33.705 22.208-33.705 22.208a45.99 45.99 0 0 1-47.25 3.229l-51.504-29.61a28.665 28.665 0 0 0-39.06 10.394L43.904 321.304c-7.875 13.624-3.15 31.186 10.474 39.06l51.424 29.611c13.624 7.875 22.838 27.012 20.633 42.526 0 0-2.52 17.168-2.52 40.714 0 23.625 2.52 40.714 2.52 40.714a45.518 45.518 0 0 1-20.633 42.526l-51.424 29.69a28.587 28.587 0 0 0-10.396 38.98l97.573 168.922c7.875 13.624 25.437 18.27 39.06 10.474l51.346-29.69c13.624-7.874 34.887-6.3 47.25 3.308a339.18 339.18 0 0 0 70.483 40.557c14.648 5.906 26.54 23.625 26.54 39.297v59.378c0 15.75 12.836 28.587 28.507 28.587h195.145c15.75 0 28.587-12.837 28.587-28.587v-59.378c0-15.75 11.891-33.39 26.46-39.376 0 0 16.617-6.694 36.54-18.113 20.082-11.655 33.942-22.444 33.942-22.444a45.99 45.99 0 0 1 47.251-3.228l51.503 29.689c13.624 7.875 31.186 3.15 38.982-10.474l97.651-168.921a28.587 28.587 0 0 0-10.552-38.982l-51.346-29.689a45.518 45.518 0 0 1-20.633-42.526s2.441-17.089 2.441-40.714zM502.314 630.796a157.58 157.58 0 1 1-0.08-315.24 157.58 157.58 0 0 1 0.08 315.24z" p-id="11070"></path></svg>