<?xml version="1.0" standalone="no"?><!DOCTYPE svg PUBLIC "-//W3C//DTD SVG 1.1//EN" "http://www.w3.org/Graphics/SVG/1.1/DTD/svg11.dtd"><svg t="1585494932295" class="icon" viewBox="0 0 1024 1024" version="1.1" xmlns="http://www.w3.org/2000/svg" p-id="4176" xmlns:xlink="http://www.w3.org/1999/xlink" width="200" height="200"><defs><style type="text/css"></style></defs><path d="M981.333333 0H597.333333a42.666667 42.666667 0 1 0 0 85.333333h281.002667L695.296 268.373333C621.738667 208.213333 529.066667 170.666667 426.666667 170.666667a426.666667 426.666667 0 1 0 426.666666 426.666666c0-102.4-37.546667-195.157333-97.706666-268.629333L938.666667 145.664V426.666667a42.666667 42.666667 0 0 0 85.333333 0V42.666667a42.666667 42.666667 0 0 0-42.666667-42.666667zM426.666667 946.432A349.44 349.44 0 0 1 77.568 597.333333 349.44 349.44 0 0 1 426.666667 248.234667 349.44 349.44 0 0 1 775.765333 597.333333 349.44 349.44 0 0 1 426.666667 946.432z" p-id="4177"></path></svg>