<?xml version="1.0" standalone="no"?><!DOCTYPE svg PUBLIC "-//W3C//DTD SVG 1.1//EN" "http://www.w3.org/Graphics/SVG/1.1/DTD/svg11.dtd"><svg t="1585494978362" class="icon" viewBox="0 0 1024 1024" version="1.1" xmlns="http://www.w3.org/2000/svg" p-id="4517" xmlns:xlink="http://www.w3.org/1999/xlink" width="200" height="200"><defs><style type="text/css"></style></defs><path d="M513.550302 482.103352c-102.183851 0-185.083579-82.786141-185.083579-185.083579 0-102.291298 82.792281-185.078463 185.083579-185.078463s185.083579 82.786141 185.083579 185.078463c0 102.296414-82.899728 185.083579-185.083579 185.083579m186.855938 194.109101l-140.53004 0.113587-0.113587-82.286771v-13.189337c138.871268-22.827817 244.928317-143.187555 244.82087-288.596699-0.113587-161.585499-131.220041-292.469897-292.805539-292.248864-161.585499 0.113587-292.476036 131.220041-292.36245 292.80554 0.107447 145.403004 106.392691 265.541709 245.25782 288.148493v13.189337l0.113586 82.286771-144.295791 0.113586c-26.270205 0-47.434133 21.277515-47.434133 47.54158 0 26.264065 21.277515 47.434133 47.541579 47.434133l144.295792-0.107447 0.113586 202.539062c0 26.264065 21.277515 47.434133 47.54158 47.434133 26.270205 0 47.434133-21.277515 47.434133-47.54158l-0.107446-202.544178 140.53004-0.107447c26.264065 0 47.434133-21.282631 47.434133-47.547719 0-26.158665-21.277515-47.43618-47.434133-47.43618" p-id="4518"></path></svg>